<?xml version="1.0" encoding="UTF-8" standalone="no"?>
<!DOCTYPE svg PUBLIC "-//W3C//DTD SVG 1.1//EN"
 "http://www.w3.org/Graphics/SVG/1.1/DTD/svg11.dtd">
<!-- Generated by graphviz version 2.36.0 (20140111.2315)
 -->
<!-- Title: Class_Diagram Pages: 1 -->
<svg width="915pt" height="1112pt"
 viewBox="0.00 0.00 914.69 1112.00" xmlns="http://www.w3.org/2000/svg" xmlns:xlink="http://www.w3.org/1999/xlink">
<g id="graph0" class="graph" transform="scale(1 1) rotate(0) translate(4 1108)">
<title>Class_Diagram</title>
<polygon fill="white" stroke="none" points="-4,4 -4,-1108 910.693,-1108 910.693,4 -4,4"/>
<!-- uscp -->
<g id="node1" class="node"><title>uscp</title>
<polygon fill="#bfbfbf" stroke="black" points="562.943,-1084.5 562.943,-1103.5 607.943,-1103.5 607.943,-1084.5 562.943,-1084.5"/>
<text text-anchor="middle" x="585.443" y="-1091.5" font-family="Helvetica,sans-Serif" font-size="10.00">USCP</text>
</g>
<!-- automaton_cell -->
<g id="node2" class="node"><title>automaton_cell</title>
<polygon fill="white" stroke="black" points="420.943,-67 420.943,-223 521.943,-223 521.943,-67 420.943,-67"/>
<text text-anchor="middle" x="471.443" y="-211" font-family="Helvetica,sans-Serif" font-size="10.00">AutomatonCell</text>
<polyline fill="none" stroke="black" points="420.943,-204 521.943,-204 "/>
<text text-anchor="start" x="428.943" y="-192" font-family="Helvetica,sans-Serif" font-size="10.00">&#45; type</text>
<text text-anchor="start" x="428.943" y="-181" font-family="Helvetica,sans-Serif" font-size="10.00">&#45; cellCount</text>
<text text-anchor="start" x="428.943" y="-170" font-family="Helvetica,sans-Serif" font-size="10.00">&#45; ID</text>
<polyline fill="none" stroke="black" points="420.943,-163 521.943,-163 "/>
<text text-anchor="start" x="428.943" y="-151" font-family="Helvetica,sans-Serif" font-size="10.00">+ AutomatonCell()</text>
<text text-anchor="start" x="428.943" y="-140" font-family="Helvetica,sans-Serif" font-size="10.00">+ getType()</text>
<text text-anchor="start" x="428.943" y="-129" font-family="Helvetica,sans-Serif" font-size="10.00">+ setType()</text>
<text text-anchor="start" x="428.943" y="-118" font-family="Helvetica,sans-Serif" font-size="10.00">+ getCount()</text>
<text text-anchor="start" x="428.943" y="-107" font-family="Helvetica,sans-Serif" font-size="10.00">+ setCount()</text>
<text text-anchor="start" x="428.943" y="-96" font-family="Helvetica,sans-Serif" font-size="10.00">+ getId()</text>
<text text-anchor="start" x="428.943" y="-85" font-family="Helvetica,sans-Serif" font-size="10.00">+ setId()</text>
<text text-anchor="start" x="428.943" y="-74" font-family="Helvetica,sans-Serif" font-size="10.00">+ incrementCount()</text>
</g>
<!-- uscp&#45;&gt;automaton_cell -->
<g id="edge1" class="edge"><title>uscp&#45;&gt;automaton_cell</title>
<path fill="none" stroke="#404040" stroke-dasharray="5,2" d="M562.764,-1091.9C494.951,-1088.34 294.82,-1075.68 236.443,-1048 135.876,-1000.32 98.4814,-978.212 54.4427,-876 -44.095,-647.297 -8.72867,-507.814 161.443,-326 232.726,-249.84 343.56,-196.246 411.594,-168.317"/>
<polygon fill="#404040" stroke="#404040" points="420.902,-164.547 413.323,-172.473 416.267,-166.424 411.633,-168.302 411.633,-168.302 411.633,-168.302 416.267,-166.424 409.944,-164.131 420.902,-164.547 420.902,-164.547"/>
</g>
<!-- cell -->
<g id="node3" class="node"><title>cell</title>
<polygon fill="white" stroke="black" points="569.943,-543 569.943,-875 694.943,-875 694.943,-543 569.943,-543"/>
<text text-anchor="middle" x="632.443" y="-863" font-family="Helvetica,sans-Serif" font-size="10.00">Cell</text>
<polyline fill="none" stroke="black" points="569.943,-856 694.943,-856 "/>
<text text-anchor="start" x="577.943" y="-844" font-family="Helvetica,sans-Serif" font-size="10.00">&#45; id</text>
<text text-anchor="start" x="577.943" y="-833" font-family="Helvetica,sans-Serif" font-size="10.00">&#45; radius</text>
<text text-anchor="start" x="577.943" y="-822" font-family="Helvetica,sans-Serif" font-size="10.00">&#45; senseRadius</text>
<text text-anchor="start" x="577.943" y="-811" font-family="Helvetica,sans-Serif" font-size="10.00">&#45; eCadherin</text>
<text text-anchor="start" x="577.943" y="-800" font-family="Helvetica,sans-Serif" font-size="10.00">&#45; EB</text>
<text text-anchor="start" x="577.943" y="-789" font-family="Helvetica,sans-Serif" font-size="10.00">&#45; geneticCode[3]</text>
<text text-anchor="start" x="577.943" y="-778" font-family="Helvetica,sans-Serif" font-size="10.00">&#45; age</text>
<polyline fill="none" stroke="black" points="569.943,-771 694.943,-771 "/>
<text text-anchor="start" x="577.943" y="-759" font-family="Helvetica,sans-Serif" font-size="10.00">+ Cell()</text>
<text text-anchor="start" x="577.943" y="-748" font-family="Helvetica,sans-Serif" font-size="10.00">+ ~Cell()</text>
<text text-anchor="start" x="577.943" y="-737" font-family="Helvetica,sans-Serif" font-size="10.00">+ getId()</text>
<text text-anchor="start" x="577.943" y="-726" font-family="Helvetica,sans-Serif" font-size="10.00">+ setId()</text>
<text text-anchor="start" x="577.943" y="-715" font-family="Helvetica,sans-Serif" font-size="10.00">+ getRadius()</text>
<text text-anchor="start" x="577.943" y="-704" font-family="Helvetica,sans-Serif" font-size="10.00">+ setRadius()</text>
<text text-anchor="start" x="577.943" y="-693" font-family="Helvetica,sans-Serif" font-size="10.00">+ getSenseRadius()</text>
<text text-anchor="start" x="577.943" y="-682" font-family="Helvetica,sans-Serif" font-size="10.00">+ setSenseRadius()</text>
<text text-anchor="start" x="577.943" y="-671" font-family="Helvetica,sans-Serif" font-size="10.00">+ getCentroid()</text>
<text text-anchor="start" x="577.943" y="-660" font-family="Helvetica,sans-Serif" font-size="10.00">+ setCentroid()</text>
<text text-anchor="start" x="577.943" y="-649" font-family="Helvetica,sans-Serif" font-size="10.00">+ getECadherin()</text>
<text text-anchor="start" x="577.943" y="-638" font-family="Helvetica,sans-Serif" font-size="10.00">+ setECadherin()</text>
<text text-anchor="start" x="577.943" y="-627" font-family="Helvetica,sans-Serif" font-size="10.00">+ getEB()</text>
<text text-anchor="start" x="577.943" y="-616" font-family="Helvetica,sans-Serif" font-size="10.00">+ setEB()</text>
<text text-anchor="start" x="577.943" y="-605" font-family="Helvetica,sans-Serif" font-size="10.00">+ getGeneticCode()</text>
<text text-anchor="start" x="577.943" y="-594" font-family="Helvetica,sans-Serif" font-size="10.00">+ setGeneticCode()</text>
<text text-anchor="start" x="577.943" y="-583" font-family="Helvetica,sans-Serif" font-size="10.00">+ getAge()</text>
<text text-anchor="start" x="577.943" y="-572" font-family="Helvetica,sans-Serif" font-size="10.00">+ setAge()</text>
<text text-anchor="start" x="577.943" y="-561" font-family="Helvetica,sans-Serif" font-size="10.00">+ incrementAge()</text>
<text text-anchor="start" x="577.943" y="-550" font-family="Helvetica,sans-Serif" font-size="10.00">+ getFavorableLocation()</text>
</g>
<!-- uscp&#45;&gt;cell -->
<g id="edge2" class="edge"><title>uscp&#45;&gt;cell</title>
<path fill="none" stroke="#404040" stroke-dasharray="5,2" d="M590.87,-1084.43C596.123,-1075.65 603.808,-1061.43 607.443,-1048 621.485,-996.108 628.688,-938.206 632.146,-885.192"/>
<polygon fill="#404040" stroke="#404040" points="632.769,-875.006 636.65,-885.262 632.463,-879.996 632.158,-884.987 632.158,-884.987 632.158,-884.987 632.463,-879.996 627.667,-884.712 632.769,-875.006 632.769,-875.006"/>
</g>
<!-- environment -->
<g id="node4" class="node"><title>environment</title>
<polygon fill="white" stroke="black" points="245.443,-929.5 245.443,-1030.5 359.443,-1030.5 359.443,-929.5 245.443,-929.5"/>
<text text-anchor="middle" x="302.443" y="-1018.5" font-family="Helvetica,sans-Serif" font-size="10.00">Environment</text>
<polyline fill="none" stroke="black" points="245.443,-1011.5 359.443,-1011.5 "/>
<text text-anchor="middle" x="302.443" y="-999.5" font-family="Helvetica,sans-Serif" font-size="10.00"> </text>
<polyline fill="none" stroke="black" points="245.443,-992.5 359.443,-992.5 "/>
<text text-anchor="start" x="253.443" y="-980.5" font-family="Helvetica,sans-Serif" font-size="10.00">+ Environment()</text>
<text text-anchor="start" x="253.443" y="-969.5" font-family="Helvetica,sans-Serif" font-size="10.00">+ setupECM()</text>
<text text-anchor="start" x="253.443" y="-958.5" font-family="Helvetica,sans-Serif" font-size="10.00">+ createCells()</text>
<text text-anchor="start" x="253.443" y="-947.5" font-family="Helvetica,sans-Serif" font-size="10.00">&#45; generatePtFreqMap()</text>
<text text-anchor="start" x="253.443" y="-936.5" font-family="Helvetica,sans-Serif" font-size="10.00">&#45; drawLine()</text>
</g>
<!-- uscp&#45;&gt;environment -->
<g id="edge3" class="edge"><title>uscp&#45;&gt;environment</title>
<path fill="none" stroke="#404040" stroke-dasharray="5,2" d="M563.706,-1084.4C522.587,-1068.12 431.908,-1032.24 369.002,-1007.34"/>
<polygon fill="#404040" stroke="#404040" points="359.544,-1003.6 370.499,-1003.09 364.194,-1005.44 368.843,-1007.28 368.843,-1007.28 368.843,-1007.28 364.194,-1005.44 367.187,-1011.46 359.544,-1003.6 359.544,-1003.6"/>
</g>
<!-- simulation -->
<g id="node7" class="node"><title>simulation</title>
<polygon fill="white" stroke="black" points="484.443,-913 484.443,-1047 598.443,-1047 598.443,-913 484.443,-913"/>
<text text-anchor="middle" x="541.443" y="-1035" font-family="Helvetica,sans-Serif" font-size="10.00">Simulation</text>
<polyline fill="none" stroke="black" points="484.443,-1028 598.443,-1028 "/>
<text text-anchor="middle" x="541.443" y="-1016" font-family="Helvetica,sans-Serif" font-size="10.00"> </text>
<polyline fill="none" stroke="black" points="484.443,-1009 598.443,-1009 "/>
<text text-anchor="start" x="492.443" y="-997" font-family="Helvetica,sans-Serif" font-size="10.00">+ Simulation()</text>
<text text-anchor="start" x="492.443" y="-986" font-family="Helvetica,sans-Serif" font-size="10.00">+ generateOpId()</text>
<text text-anchor="start" x="492.443" y="-975" font-family="Helvetica,sans-Serif" font-size="10.00">+ simulate()</text>
<text text-anchor="start" x="492.443" y="-964" font-family="Helvetica,sans-Serif" font-size="10.00">&#45; moveCells()</text>
<text text-anchor="start" x="492.443" y="-953" font-family="Helvetica,sans-Serif" font-size="10.00">&#45; updateEB()</text>
<text text-anchor="start" x="492.443" y="-942" font-family="Helvetica,sans-Serif" font-size="10.00">&#45; evolveGeneticCode()</text>
<text text-anchor="start" x="492.443" y="-931" font-family="Helvetica,sans-Serif" font-size="10.00">+ increaseAge()</text>
<text text-anchor="start" x="492.443" y="-920" font-family="Helvetica,sans-Serif" font-size="10.00">+ splitCell()</text>
</g>
<!-- uscp&#45;&gt;simulation -->
<g id="edge4" class="edge"><title>uscp&#45;&gt;simulation</title>
<path fill="none" stroke="#404040" stroke-dasharray="5,2" d="M581.99,-1084.21C579.379,-1077.56 575.512,-1067.72 571.188,-1056.71"/>
<polygon fill="#404040" stroke="#404040" points="567.465,-1047.24 575.31,-1054.9 569.293,-1051.89 571.122,-1056.55 571.122,-1056.55 571.122,-1056.55 569.293,-1051.89 566.933,-1058.19 567.465,-1047.24 567.465,-1047.24"/>
</g>
<!-- simulation_param -->
<g id="node8" class="node"><title>simulation_param</title>
<polygon fill="white" stroke="black" points="676.443,-1 676.443,-289 814.443,-289 814.443,-1 676.443,-1"/>
<text text-anchor="middle" x="745.443" y="-277" font-family="Helvetica,sans-Serif" font-size="10.00">SimulationParameters</text>
<polyline fill="none" stroke="black" points="676.443,-270 814.443,-270 "/>
<text text-anchor="start" x="684.443" y="-258" font-family="Helvetica,sans-Serif" font-size="10.00">&#45; latticeHeight</text>
<text text-anchor="start" x="684.443" y="-247" font-family="Helvetica,sans-Serif" font-size="10.00">&#45; latticeWidth</text>
<text text-anchor="start" x="684.443" y="-236" font-family="Helvetica,sans-Serif" font-size="10.00">&#45; latticeDepth</text>
<text text-anchor="start" x="684.443" y="-225" font-family="Helvetica,sans-Serif" font-size="10.00">&#45; fiberLength</text>
<text text-anchor="start" x="684.443" y="-214" font-family="Helvetica,sans-Serif" font-size="10.00">&#45; fiberCount</text>
<text text-anchor="start" x="684.443" y="-203" font-family="Helvetica,sans-Serif" font-size="10.00">&#45; cellCount</text>
<text text-anchor="start" x="684.443" y="-192" font-family="Helvetica,sans-Serif" font-size="10.00">&#45; cellDivisionAge</text>
<text text-anchor="start" x="684.443" y="-181" font-family="Helvetica,sans-Serif" font-size="10.00">&#45; alpha</text>
<text text-anchor="start" x="684.443" y="-170" font-family="Helvetica,sans-Serif" font-size="10.00">&#45; maxIteration</text>
<polyline fill="none" stroke="black" points="676.443,-163 814.443,-163 "/>
<text text-anchor="start" x="684.443" y="-151" font-family="Helvetica,sans-Serif" font-size="10.00">+ SimulationParameters()</text>
<text text-anchor="start" x="684.443" y="-140" font-family="Helvetica,sans-Serif" font-size="10.00">+ ~SimulationParameters()</text>
<text text-anchor="start" x="684.443" y="-129" font-family="Helvetica,sans-Serif" font-size="10.00">+ loadParameters()</text>
<text text-anchor="start" x="684.443" y="-118" font-family="Helvetica,sans-Serif" font-size="10.00">+ loadParametersFromFile()</text>
<text text-anchor="start" x="684.443" y="-107" font-family="Helvetica,sans-Serif" font-size="10.00">+ getFiberCount()</text>
<text text-anchor="start" x="684.443" y="-96" font-family="Helvetica,sans-Serif" font-size="10.00">+ setFiberCount()</text>
<text text-anchor="start" x="684.443" y="-85" font-family="Helvetica,sans-Serif" font-size="10.00">+ getFiberLength()</text>
<text text-anchor="start" x="684.443" y="-74" font-family="Helvetica,sans-Serif" font-size="10.00">+ getLatticeDepth()</text>
<text text-anchor="start" x="684.443" y="-63" font-family="Helvetica,sans-Serif" font-size="10.00">+ getLatticeHeight()</text>
<text text-anchor="start" x="684.443" y="-52" font-family="Helvetica,sans-Serif" font-size="10.00">+ getLatticeWidth()</text>
<text text-anchor="start" x="684.443" y="-41" font-family="Helvetica,sans-Serif" font-size="10.00">+ getCellCount()</text>
<text text-anchor="start" x="684.443" y="-30" font-family="Helvetica,sans-Serif" font-size="10.00">+ getCellDivisonAge()</text>
<text text-anchor="start" x="684.443" y="-19" font-family="Helvetica,sans-Serif" font-size="10.00">+ getAlpha()</text>
<text text-anchor="start" x="684.443" y="-8" font-family="Helvetica,sans-Serif" font-size="10.00">+ getMaxIteration()</text>
</g>
<!-- uscp&#45;&gt;simulation_param -->
<g id="edge5" class="edge"><title>uscp&#45;&gt;simulation_param</title>
<path fill="none" stroke="#404040" stroke-dasharray="5,2" d="M608.306,-1091.75C659.181,-1088.46 779.244,-1077.65 804.443,-1048 981.673,-839.457 890.055,-496.454 813.635,-298.964"/>
<polygon fill="#404040" stroke="#404040" points="809.894,-289.379 817.722,-297.059 811.712,-294.037 813.53,-298.695 813.53,-298.695 813.53,-298.695 811.712,-294.037 809.338,-300.331 809.894,-289.379 809.894,-289.379"/>
</g>
<!-- utilities -->
<g id="node9" class="node"><title>utilities</title>
<polygon fill="white" stroke="none" points="795.443,-1045.5 681.443,-1045.5 681.443,-914.5 795.443,-914.5 795.443,-1045.5"/>
<text text-anchor="start" x="721.443" y="-1029.5" font-family="Helvetica,sans-Serif" font-size="10.00">Utilities</text>
<text text-anchor="start" x="692.443" y="-1015" font-family="Helvetica,sans-Serif" font-size="10.00">+ </text>
<text text-anchor="start" x="702.443" y="-1015" font-family="Helvetica,sans-Serif" text-decoration="underline" font-size="10.00">TYPE</text>
<text text-anchor="start" x="692.443" y="-1000" font-family="Helvetica,sans-Serif" font-size="10.00">+ </text>
<text text-anchor="start" x="702.443" y="-1000" font-family="Helvetica,sans-Serif" text-decoration="underline" font-size="10.00">COUNT</text>
<text text-anchor="start" x="692.443" y="-985" font-family="Helvetica,sans-Serif" font-size="10.00">+ </text>
<text text-anchor="start" x="702.443" y="-985" font-family="Helvetica,sans-Serif" text-decoration="underline" font-size="10.00">ID</text>
<text text-anchor="start" x="692.443" y="-969" font-family="Helvetica,sans-Serif" font-size="10.00">+ Utilities()</text>
<text text-anchor="start" x="692.443" y="-954" font-family="Helvetica,sans-Serif" font-size="10.00">+ ~Utilities()</text>
<text text-anchor="start" x="692.443" y="-939" font-family="Helvetica,sans-Serif" font-size="10.00">+ generateECMFile()</text>
<text text-anchor="start" x="692.443" y="-924" font-family="Helvetica,sans-Serif" font-size="10.00">+ writeIteration()</text>
<polygon fill="black" stroke="black" points="689.443,-1024 689.443,-1024 787.443,-1024 787.443,-1024 689.443,-1024"/>
<polygon fill="black" stroke="black" points="689.443,-979 689.443,-979 787.443,-979 787.443,-979 689.443,-979"/>
<polygon fill="none" stroke="black" points="689.443,-918.5 689.443,-1041.5 787.443,-1041.5 787.443,-918.5 689.443,-918.5"/>
</g>
<!-- uscp&#45;&gt;utilities -->
<g id="edge6" class="edge"><title>uscp&#45;&gt;utilities</title>
<path fill="none" stroke="#404040" stroke-dasharray="5,2" d="M597.448,-1084.21C613.798,-1072.24 644.297,-1049.92 672.758,-1029.08"/>
<polygon fill="#404040" stroke="#404040" points="681.111,-1022.97 675.7,-1032.51 677.076,-1025.92 673.042,-1028.88 673.042,-1028.88 673.042,-1028.88 677.076,-1025.92 670.384,-1025.24 681.111,-1022.97 681.111,-1022.97"/>
</g>
<!-- cell&#45;&gt;automaton_cell -->
<g id="edge8" class="edge"><title>cell&#45;&gt;automaton_cell</title>
<path fill="none" stroke="#404040" stroke-dasharray="5,2" d="M669.808,-542.883C677.964,-473.57 677.199,-393.543 649.443,-326 625.481,-267.692 572.49,-218.215 530.522,-185.978"/>
<polygon fill="#404040" stroke="#404040" points="522.288,-179.763 532.98,-182.196 526.279,-182.775 530.269,-185.788 530.269,-185.788 530.269,-185.788 526.279,-182.775 527.559,-189.379 522.288,-179.763 522.288,-179.763"/>
</g>
<!-- point -->
<g id="node6" class="node"><title>point</title>
<polygon fill="white" stroke="black" points="351.443,-327 351.443,-505 411.443,-505 411.443,-327 351.443,-327"/>
<text text-anchor="middle" x="381.443" y="-493" font-family="Helvetica,sans-Serif" font-size="10.00">Point</text>
<polyline fill="none" stroke="black" points="351.443,-486 411.443,-486 "/>
<text text-anchor="start" x="359.443" y="-474" font-family="Helvetica,sans-Serif" font-size="10.00">&#45; x</text>
<text text-anchor="start" x="359.443" y="-463" font-family="Helvetica,sans-Serif" font-size="10.00">&#45; y</text>
<text text-anchor="start" x="359.443" y="-452" font-family="Helvetica,sans-Serif" font-size="10.00">&#45; z</text>
<polyline fill="none" stroke="black" points="351.443,-445 411.443,-445 "/>
<text text-anchor="start" x="359.443" y="-433" font-family="Helvetica,sans-Serif" font-size="10.00">+ Point()</text>
<text text-anchor="start" x="359.443" y="-422" font-family="Helvetica,sans-Serif" font-size="10.00">+ Point()</text>
<text text-anchor="start" x="359.443" y="-411" font-family="Helvetica,sans-Serif" font-size="10.00">+ getX()</text>
<text text-anchor="start" x="359.443" y="-400" font-family="Helvetica,sans-Serif" font-size="10.00">+ setX()</text>
<text text-anchor="start" x="359.443" y="-389" font-family="Helvetica,sans-Serif" font-size="10.00">+ getY()</text>
<text text-anchor="start" x="359.443" y="-378" font-family="Helvetica,sans-Serif" font-size="10.00">+ setY()</text>
<text text-anchor="start" x="359.443" y="-367" font-family="Helvetica,sans-Serif" font-size="10.00">+ getZ()</text>
<text text-anchor="start" x="359.443" y="-356" font-family="Helvetica,sans-Serif" font-size="10.00">+ setZ()</text>
<text text-anchor="start" x="359.443" y="-345" font-family="Helvetica,sans-Serif" font-size="10.00">+ getVar()</text>
<text text-anchor="start" x="359.443" y="-334" font-family="Helvetica,sans-Serif" font-size="10.00">+ setVar()</text>
</g>
<!-- cell&#45;&gt;point -->
<g id="edge7" class="edge"><title>cell&#45;&gt;point</title>
<path fill="none" stroke="#404040" d="M569.752,-635.319C521.985,-579.939 457.861,-505.596 418.118,-459.52"/>
<polygon fill="#404040" stroke="#404040" points="411.474,-451.817 421.413,-456.45 414.74,-455.603 418.005,-459.389 418.005,-459.389 418.005,-459.389 414.74,-455.603 414.598,-462.328 411.474,-451.817 411.474,-451.817"/>
</g>
<!-- cell&#45;&gt;simulation_param -->
<g id="edge9" class="edge"><title>cell&#45;&gt;simulation_param</title>
<path fill="none" stroke="#404040" stroke-dasharray="5,2" d="M675.228,-542.884C678.119,-530.428 680.892,-518.03 683.443,-506 697.739,-438.57 711.072,-363.507 721.682,-299.446"/>
<polygon fill="#404040" stroke="#404040" points="723.361,-289.262 726.174,-299.861 722.548,-294.196 721.734,-299.129 721.734,-299.129 721.734,-299.129 722.548,-294.196 717.294,-298.397 723.361,-289.262 723.361,-289.262"/>
</g>
<!-- stem_cell -->
<g id="node11" class="node"><title>stem_cell</title>
<polygon fill="white" stroke="black" points="467.443,-382 467.443,-450 539.443,-450 539.443,-382 467.443,-382"/>
<text text-anchor="middle" x="503.443" y="-438" font-family="Helvetica,sans-Serif" font-size="10.00">StemCell</text>
<polyline fill="none" stroke="black" points="467.443,-431 539.443,-431 "/>
<text text-anchor="middle" x="503.443" y="-419" font-family="Helvetica,sans-Serif" font-size="10.00"> </text>
<polyline fill="none" stroke="black" points="467.443,-412 539.443,-412 "/>
<text text-anchor="start" x="475.443" y="-400" font-family="Helvetica,sans-Serif" font-size="10.00">+ StemCell()</text>
<text text-anchor="start" x="475.443" y="-389" font-family="Helvetica,sans-Serif" font-size="10.00">+ divide()</text>
</g>
<!-- cell&#45;&gt;stem_cell -->
<g id="edge10" class="edge"><title>cell&#45;&gt;stem_cell</title>
<path fill="none" stroke="#404040" d="M565.755,-557.566C547.794,-517.048 530.059,-477.041 518.13,-450.132"/>
<polygon fill="none" stroke="#404040" points="562.58,-559.039 569.832,-566.762 568.979,-556.202 562.58,-559.039"/>
</g>
<!-- ta_cell -->
<g id="node12" class="node"><title>ta_cell</title>
<polygon fill="white" stroke="black" points="557.943,-382 557.943,-450 640.943,-450 640.943,-382 557.943,-382"/>
<text text-anchor="middle" x="599.443" y="-438" font-family="Helvetica,sans-Serif" font-size="10.00">TACell</text>
<polyline fill="none" stroke="black" points="557.943,-431 640.943,-431 "/>
<text text-anchor="middle" x="599.443" y="-419" font-family="Helvetica,sans-Serif" font-size="10.00"> </text>
<polyline fill="none" stroke="black" points="557.943,-412 640.943,-412 "/>
<text text-anchor="start" x="565.943" y="-400" font-family="Helvetica,sans-Serif" font-size="10.00">+ TACell()</text>
<text text-anchor="start" x="565.943" y="-389" font-family="Helvetica,sans-Serif" font-size="10.00">+ differentiate()</text>
</g>
<!-- cell&#45;&gt;ta_cell -->
<g id="edge11" class="edge"><title>cell&#45;&gt;ta_cell</title>
<path fill="none" stroke="#404040" d="M612.555,-532.625C608.972,-501.028 605.611,-471.396 603.19,-450.041"/>
<polygon fill="none" stroke="#404040" points="609.12,-533.402 613.725,-542.944 616.076,-532.614 609.12,-533.402"/>
</g>
<!-- environment&#45;&gt;automaton_cell -->
<g id="edge12" class="edge"><title>environment&#45;&gt;automaton_cell</title>
<path fill="none" stroke="#404040" stroke-dasharray="5,2" d="M245.387,-935.944C227.874,-919.349 210.771,-898.837 201.443,-876 155.224,-762.853 143.771,-433.76 201.443,-326 245.656,-243.388 346.385,-192.143 411.533,-166.377"/>
<polygon fill="#404040" stroke="#404040" points="420.875,-162.76 413.175,-170.567 416.213,-164.565 411.55,-166.371 411.55,-166.371 411.55,-166.371 416.213,-164.565 409.925,-162.174 420.875,-162.76 420.875,-162.76"/>
</g>
<!-- environment&#45;&gt;cell -->
<g id="edge13" class="edge"><title>environment&#45;&gt;cell</title>
<path fill="none" stroke="#404040" stroke-dasharray="5,2" d="M359.548,-932.451C415.689,-886.687 501.508,-816.732 561.887,-767.513"/>
<polygon fill="#404040" stroke="#404040" points="569.861,-761.013 564.954,-770.82 565.986,-764.172 562.11,-767.332 562.11,-767.332 562.11,-767.332 565.986,-764.172 559.267,-763.844 569.861,-761.013 569.861,-761.013"/>
</g>
<!-- line -->
<g id="node5" class="node"><title>line</title>
<polygon fill="white" stroke="black" points="243.443,-614.5 243.443,-803.5 361.443,-803.5 361.443,-614.5 243.443,-614.5"/>
<text text-anchor="middle" x="302.443" y="-791.5" font-family="Helvetica,sans-Serif" font-size="10.00">Line</text>
<polyline fill="none" stroke="black" points="243.443,-784.5 361.443,-784.5 "/>
<text text-anchor="start" x="251.443" y="-772.5" font-family="Helvetica,sans-Serif" font-size="10.00">&#45; id</text>
<text text-anchor="start" x="251.443" y="-761.5" font-family="Helvetica,sans-Serif" font-size="10.00">&#45; numberOfPoints</text>
<text text-anchor="start" x="251.443" y="-750.5" font-family="Helvetica,sans-Serif" font-size="10.00">&#45; point[]</text>
<polyline fill="none" stroke="black" points="243.443,-743.5 361.443,-743.5 "/>
<text text-anchor="start" x="251.443" y="-731.5" font-family="Helvetica,sans-Serif" font-size="10.00">+ Line()</text>
<text text-anchor="start" x="251.443" y="-720.5" font-family="Helvetica,sans-Serif" font-size="10.00">+ Line()</text>
<text text-anchor="start" x="251.443" y="-709.5" font-family="Helvetica,sans-Serif" font-size="10.00">+ Line()</text>
<text text-anchor="start" x="251.443" y="-698.5" font-family="Helvetica,sans-Serif" font-size="10.00">+ ~Line()</text>
<text text-anchor="start" x="251.443" y="-687.5" font-family="Helvetica,sans-Serif" font-size="10.00">+ getId()</text>
<text text-anchor="start" x="251.443" y="-676.5" font-family="Helvetica,sans-Serif" font-size="10.00">+ setId()</text>
<text text-anchor="start" x="251.443" y="-665.5" font-family="Helvetica,sans-Serif" font-size="10.00">+ getNumberOfPoints()</text>
<text text-anchor="start" x="251.443" y="-654.5" font-family="Helvetica,sans-Serif" font-size="10.00">+ getPoint()</text>
<text text-anchor="start" x="251.443" y="-643.5" font-family="Helvetica,sans-Serif" font-size="10.00">+ setPoint()</text>
<text text-anchor="start" x="251.443" y="-632.5" font-family="Helvetica,sans-Serif" font-size="10.00">+ getPointArray()</text>
<text text-anchor="start" x="251.443" y="-621.5" font-family="Helvetica,sans-Serif" font-size="10.00">+ setPointArray()</text>
</g>
<!-- environment&#45;&gt;line -->
<g id="edge14" class="edge"><title>environment&#45;&gt;line</title>
<path fill="none" stroke="#404040" stroke-dasharray="5,2" d="M302.443,-929.348C302.443,-896.95 302.443,-853.45 302.443,-813.733"/>
<polygon fill="#404040" stroke="#404040" points="302.443,-803.726 306.943,-813.726 302.443,-808.726 302.443,-813.726 302.443,-813.726 302.443,-813.726 302.443,-808.726 297.943,-813.726 302.443,-803.726 302.443,-803.726"/>
</g>
<!-- environment&#45;&gt;point -->
<g id="edge15" class="edge"><title>environment&#45;&gt;point</title>
<path fill="none" stroke="#404040" stroke-dasharray="5,2" d="M343.328,-929.244C354.22,-913.202 364.579,-894.709 370.443,-876 407.994,-756.195 403.5,-610.055 394.485,-515.34"/>
<polygon fill="#404040" stroke="#404040" points="393.483,-505.196 398.944,-514.705 393.975,-510.171 394.466,-515.147 394.466,-515.147 394.466,-515.147 393.975,-510.171 389.988,-515.59 393.483,-505.196 393.483,-505.196"/>
</g>
<!-- environment&#45;&gt;simulation_param -->
<g id="edge16" class="edge"><title>environment&#45;&gt;simulation_param</title>
<path fill="none" stroke="#404040" stroke-dasharray="5,2" d="M261.28,-929.329C250.377,-913.29 240.082,-894.778 234.443,-876 191.745,-733.829 200.337,-686.473 234.443,-542 259.102,-437.54 256.88,-390.799 342.443,-326 410.262,-274.638 451.747,-322.318 530.443,-290 579.522,-269.845 629.074,-237.639 668.219,-208.791"/>
<polygon fill="#404040" stroke="#404040" points="676.41,-202.692 671.077,-212.274 672.4,-205.678 668.389,-208.665 668.389,-208.665 668.389,-208.665 672.4,-205.678 665.702,-205.055 676.41,-202.692 676.41,-202.692"/>
</g>
<!-- var -->
<g id="node10" class="node"><title>var</title>
<polygon fill="white" stroke="black" points="63.4427,-609 63.4427,-809 149.443,-809 149.443,-609 63.4427,-609"/>
<text text-anchor="middle" x="106.443" y="-797" font-family="Helvetica,sans-Serif" font-size="10.00">Var</text>
<polyline fill="none" stroke="black" points="63.4427,-790 149.443,-790 "/>
<text text-anchor="start" x="71.4427" y="-778" font-family="Helvetica,sans-Serif" font-size="10.00">&#45; varName</text>
<text text-anchor="start" x="71.4427" y="-767" font-family="Helvetica,sans-Serif" font-size="10.00">&#45; index</text>
<text text-anchor="start" x="71.4427" y="-756" font-family="Helvetica,sans-Serif" font-size="10.00">&#45; delta</text>
<text text-anchor="start" x="71.4427" y="-745" font-family="Helvetica,sans-Serif" font-size="10.00">&#45; value</text>
<polyline fill="none" stroke="black" points="63.4427,-738 149.443,-738 "/>
<text text-anchor="start" x="71.4427" y="-726" font-family="Helvetica,sans-Serif" font-size="10.00">+ Var()</text>
<text text-anchor="start" x="71.4427" y="-715" font-family="Helvetica,sans-Serif" font-size="10.00">+ Var()</text>
<text text-anchor="start" x="71.4427" y="-704" font-family="Helvetica,sans-Serif" font-size="10.00">+ ~Var()</text>
<text text-anchor="start" x="71.4427" y="-693" font-family="Helvetica,sans-Serif" font-size="10.00">+ getVarName()</text>
<text text-anchor="start" x="71.4427" y="-682" font-family="Helvetica,sans-Serif" font-size="10.00">+ setVarName()</text>
<text text-anchor="start" x="71.4427" y="-671" font-family="Helvetica,sans-Serif" font-size="10.00">+ getIndex()</text>
<text text-anchor="start" x="71.4427" y="-660" font-family="Helvetica,sans-Serif" font-size="10.00">+ setIndex()</text>
<text text-anchor="start" x="71.4427" y="-649" font-family="Helvetica,sans-Serif" font-size="10.00">+ getDelta()</text>
<text text-anchor="start" x="71.4427" y="-638" font-family="Helvetica,sans-Serif" font-size="10.00">+ setDelta()</text>
<text text-anchor="start" x="71.4427" y="-627" font-family="Helvetica,sans-Serif" font-size="10.00">+ getValue()</text>
<text text-anchor="start" x="71.4427" y="-616" font-family="Helvetica,sans-Serif" font-size="10.00">+ setValue()</text>
</g>
<!-- environment&#45;&gt;var -->
<g id="edge17" class="edge"><title>environment&#45;&gt;var</title>
<path fill="none" stroke="#404040" stroke-dasharray="5,2" d="M245.157,-947.744C217.137,-929.939 184.91,-905.325 163.443,-876 150.934,-858.913 141.017,-838.871 133.205,-818.736"/>
<polygon fill="#404040" stroke="#404040" points="129.65,-809.174 137.353,-816.979 131.392,-813.861 133.135,-818.548 133.135,-818.548 133.135,-818.548 131.392,-813.861 128.917,-820.116 129.65,-809.174 129.65,-809.174"/>
</g>
<!-- line&#45;&gt;point -->
<g id="edge18" class="edge"><title>line&#45;&gt;point</title>
<path fill="none" stroke="#404040" d="M331.038,-602.668C339.73,-570.649 349.187,-535.815 357.537,-505.059"/>
<polygon fill="none" stroke="#404040" points="331.018,-602.743 333.306,-609.582 327.874,-614.324 325.585,-607.486 331.018,-602.743"/>
</g>
<!-- simulation&#45;&gt;automaton_cell -->
<g id="edge19" class="edge"><title>simulation&#45;&gt;automaton_cell</title>
<path fill="none" stroke="#404040" stroke-dasharray="5,2" d="M515.269,-912.888C511.165,-900.759 507.332,-888.105 504.443,-876 447.499,-637.403 449.602,-571.139 458.443,-326 459.534,-295.751 461.653,-262.697 463.868,-233.265"/>
<polygon fill="#404040" stroke="#404040" points="464.655,-223.015 468.376,-233.33 464.272,-228.001 463.89,-232.986 463.89,-232.986 463.89,-232.986 464.272,-228.001 459.403,-232.642 464.655,-223.015 464.655,-223.015"/>
</g>
<!-- simulation&#45;&gt;cell -->
<g id="edge20" class="edge"><title>simulation&#45;&gt;cell</title>
<path fill="none" stroke="#404040" stroke-dasharray="5,2" d="M563.82,-912.851C566.851,-903.891 570.069,-894.381 573.392,-884.556"/>
<polygon fill="#404040" stroke="#404040" points="576.608,-875.049 577.667,-885.963 575.006,-879.785 573.404,-884.521 573.404,-884.521 573.404,-884.521 575.006,-879.785 569.141,-883.079 576.608,-875.049 576.608,-875.049"/>
</g>
<!-- simulation&#45;&gt;point -->
<g id="edge21" class="edge"><title>simulation&#45;&gt;point</title>
<path fill="none" stroke="#404040" stroke-dasharray="5,2" d="M484.362,-925.139C471.677,-910.369 459.594,-893.553 451.443,-876 451.205,-875.487 416.836,-649.704 396.351,-515.038"/>
<polygon fill="#404040" stroke="#404040" points="394.84,-505.104 400.793,-514.313 395.592,-510.047 396.344,-514.99 396.344,-514.99 396.344,-514.99 395.592,-510.047 391.895,-515.667 394.84,-505.104 394.84,-505.104"/>
</g>
<!-- simulation&#45;&gt;simulation_param -->
<g id="edge22" class="edge"><title>simulation&#45;&gt;simulation_param</title>
<path fill="none" stroke="#404040" stroke-dasharray="5,2" d="M598.646,-949.912C640.164,-927.531 691.123,-896.98 703.443,-876 758.791,-781.745 758.681,-483.971 752.679,-299.136"/>
<polygon fill="#404040" stroke="#404040" points="752.342,-289.051 757.173,-298.895 752.509,-294.048 752.676,-299.045 752.676,-299.045 752.676,-299.045 752.509,-294.048 748.178,-299.196 752.342,-289.051 752.342,-289.051"/>
</g>
<!-- simulation&#45;&gt;stem_cell -->
<g id="edge23" class="edge"><title>simulation&#45;&gt;stem_cell</title>
<path fill="none" stroke="#404040" stroke-dasharray="5,2" d="M531.631,-912.881C530.049,-900.639 528.565,-887.948 527.443,-876 513.14,-723.744 506.801,-542.215 504.519,-460.57"/>
<polygon fill="#404040" stroke="#404040" points="504.235,-450.189 509.006,-460.062 504.372,-455.187 504.508,-460.185 504.508,-460.185 504.508,-460.185 504.372,-455.187 500.01,-460.308 504.235,-450.189 504.235,-450.189"/>
</g>
<!-- simulation&#45;&gt;ta_cell -->
<g id="edge24" class="edge"><title>simulation&#45;&gt;ta_cell</title>
<path fill="none" stroke="#404040" stroke-dasharray="5,2" d="M539.035,-912.908C537.101,-826.824 537.738,-671.977 560.443,-542 565.342,-513.953 574.782,-483.43 583.148,-459.567"/>
<polygon fill="#404040" stroke="#404040" points="586.529,-450.107 587.401,-461.038 584.846,-454.815 583.163,-459.523 583.163,-459.523 583.163,-459.523 584.846,-454.815 578.926,-458.009 586.529,-450.107 586.529,-450.107"/>
</g>
<!-- utilities&#45;&gt;automaton_cell -->
<g id="edge25" class="edge"><title>utilities&#45;&gt;automaton_cell</title>
<path fill="none" stroke="#404040" stroke-dasharray="5,2" d="M747.838,-914.153C762.421,-791.321 779.088,-519.699 676.443,-326 643.178,-263.228 578.518,-212.221 530.673,-180.741"/>
<polygon fill="#404040" stroke="#404040" points="522.247,-175.284 533.087,-176.943 526.444,-178.002 530.64,-180.72 530.64,-180.72 530.64,-180.72 526.444,-178.002 528.194,-184.497 522.247,-175.284 522.247,-175.284"/>
</g>
<!-- utilities&#45;&gt;cell -->
<g id="edge27" class="edge"><title>utilities&#45;&gt;cell</title>
<path fill="none" stroke="#404040" stroke-dasharray="5,2" d="M712.918,-914.225C708.5,-903.014 703.73,-890.909 698.795,-878.385"/>
<polygon fill="#404040" stroke="#404040" points="694.992,-868.734 702.845,-876.387 696.825,-873.385 698.658,-878.037 698.658,-878.037 698.658,-878.037 696.825,-873.385 694.472,-879.687 694.992,-868.734 694.992,-868.734"/>
</g>
<!-- utilities&#45;&gt;simulation_param -->
<g id="edge26" class="edge"><title>utilities&#45;&gt;simulation_param</title>
<path fill="none" stroke="#404040" stroke-dasharray="5,2" d="M764.801,-914.42C769.022,-901.858 772.849,-888.657 775.443,-876 824.555,-636.341 831.73,-568.225 797.443,-326 796.187,-317.131 794.6,-308.086 792.767,-299.008"/>
<polygon fill="#404040" stroke="#404040" points="790.686,-289.149 797.155,-298.004 791.719,-294.041 792.752,-298.934 792.752,-298.934 792.752,-298.934 791.719,-294.041 788.349,-299.863 790.686,-289.149 790.686,-289.149"/>
</g>
<!-- stem_cell&#45;&gt;automaton_cell -->
<g id="edge28" class="edge"><title>stem_cell&#45;&gt;automaton_cell</title>
<path fill="none" stroke="#404040" stroke-dasharray="5,2" d="M499.487,-381.746C495.097,-344.846 487.837,-283.816 481.804,-233.097"/>
<polygon fill="#404040" stroke="#404040" points="480.615,-223.101 486.265,-232.5 481.205,-228.066 481.796,-233.031 481.796,-233.031 481.796,-233.031 481.205,-228.066 477.328,-233.563 480.615,-223.101 480.615,-223.101"/>
</g>
<!-- stem_cell&#45;&gt;simulation_param -->
<g id="edge29" class="edge"><title>stem_cell&#45;&gt;simulation_param</title>
<path fill="none" stroke="#404040" stroke-dasharray="5,2" d="M516.834,-381.629C524.675,-364.171 535.566,-342.963 548.443,-326 582.713,-280.854 629.221,-237.748 668.442,-205.044"/>
<polygon fill="#404040" stroke="#404040" points="676.184,-198.644 671.343,-208.484 672.33,-201.83 668.476,-205.016 668.476,-205.016 668.476,-205.016 672.33,-201.83 665.609,-201.547 676.184,-198.644 676.184,-198.644"/>
</g>
</g>
</svg>
