<?xml version="1.0" encoding="UTF-8" standalone="no"?>
<!DOCTYPE svg PUBLIC "-//W3C//DTD SVG 1.1//EN"
 "http://www.w3.org/Graphics/SVG/1.1/DTD/svg11.dtd">
<!-- Generated by graphviz version 2.36.0 (20140111.2315)
 -->
<!-- Title: tree Pages: 1 -->
<svg width="728pt" height="410pt"
 viewBox="0.00 0.00 728.00 410.00" xmlns="http://www.w3.org/2000/svg" xmlns:xlink="http://www.w3.org/1999/xlink">
<g id="graph0" class="graph" transform="scale(1 1) rotate(0) translate(4 406)">
<title>tree</title>
<polygon fill="white" stroke="none" points="-4,4 -4,-406 724,-406 724,4 -4,4"/>
<!-- param -->
<g id="node1" class="node"><title>param</title>
<polygon fill="#e5e5e5" stroke="black" points="216,-402.5 0,-402.5 0,-379.5 216,-379.5 216,-402.5"/>
<text text-anchor="middle" x="108" y="-387.3" font-family="Times,serif" font-size="14.00">Parameters</text>
</g>
<!-- param_lattice -->
<g id="node2" class="node"><title>param_lattice</title>
<ellipse fill="#e5e5e5" stroke="black" cx="108" cy="-343" rx="0" ry="0"/>
</g>
<!-- param&#45;&gt;param_lattice -->
<g id="edge11" class="edge"><title>param&#45;&gt;param_lattice</title>
<path fill="none" stroke="black" d="M108,-379.466C108,-367.436 108,-355.405 108,-343.375"/>
</g>
<!-- lattice -->
<g id="node3" class="node"><title>lattice</title>
<polygon fill="#e5e5e5" stroke="black" points="468,-354.5 252,-354.5 252,-331.5 468,-331.5 468,-354.5"/>
<text text-anchor="middle" x="360" y="-339.3" font-family="Times,serif" font-size="14.00">Lattice</text>
</g>
<!-- param_lattice&#45;&gt;lattice -->
<g id="edge1" class="edge"><title>param_lattice&#45;&gt;lattice</title>
<path fill="none" stroke="black" d="M109.046,-343C111.031,-343 177.601,-343 241.534,-343"/>
<polygon fill="black" stroke="black" points="241.762,-346.5 251.762,-343 241.762,-339.5 241.762,-346.5"/>
</g>
<!-- param_fibcount -->
<g id="node10" class="node"><title>param_fibcount</title>
<ellipse fill="#e5e5e5" stroke="black" cx="108" cy="-129" rx="0" ry="0"/>
</g>
<!-- param_lattice&#45;&gt;param_fibcount -->
<g id="edge12" class="edge"><title>param_lattice&#45;&gt;param_fibcount</title>
<path fill="none" stroke="black" d="M108,-342.583C108,-271.528 108,-200.473 108,-129.418"/>
</g>
<!-- lattice_lheight -->
<g id="node4" class="node"><title>lattice_lheight</title>
<ellipse fill="#e5e5e5" stroke="black" cx="360" cy="-295" rx="0" ry="0"/>
</g>
<!-- lattice&#45;&gt;lattice_lheight -->
<g id="edge5" class="edge"><title>lattice&#45;&gt;lattice_lheight</title>
<path fill="none" stroke="black" d="M360,-331.466C360,-319.436 360,-307.405 360,-295.375"/>
</g>
<!-- lheight -->
<g id="node5" class="node"><title>lheight</title>
<polygon fill="#e5e5e5" stroke="black" points="720,-306.5 504,-306.5 504,-283.5 720,-283.5 720,-306.5"/>
<text text-anchor="middle" x="612" y="-291.3" font-family="Times,serif" font-size="14.00">Height</text>
</g>
<!-- lattice_lheight&#45;&gt;lheight -->
<g id="edge2" class="edge"><title>lattice_lheight&#45;&gt;lheight</title>
<path fill="none" stroke="black" d="M361.046,-295C363.031,-295 429.601,-295 493.534,-295"/>
<polygon fill="black" stroke="black" points="493.762,-298.5 503.762,-295 493.762,-291.5 493.762,-298.5"/>
</g>
<!-- lattice_lwidth -->
<g id="node6" class="node"><title>lattice_lwidth</title>
<ellipse fill="#e5e5e5" stroke="black" cx="360" cy="-236" rx="0" ry="0"/>
</g>
<!-- lattice_lheight&#45;&gt;lattice_lwidth -->
<g id="edge6" class="edge"><title>lattice_lheight&#45;&gt;lattice_lwidth</title>
<path fill="none" stroke="black" d="M360,-294.543C360,-275.182 360,-255.822 360,-236.461"/>
</g>
<!-- lwidth -->
<g id="node7" class="node"><title>lwidth</title>
<polygon fill="#e5e5e5" stroke="black" points="720,-247.5 504,-247.5 504,-224.5 720,-224.5 720,-247.5"/>
<text text-anchor="middle" x="612" y="-232.3" font-family="Times,serif" font-size="14.00">Width</text>
</g>
<!-- lattice_lwidth&#45;&gt;lwidth -->
<g id="edge3" class="edge"><title>lattice_lwidth&#45;&gt;lwidth</title>
<path fill="none" stroke="black" d="M361.046,-236C363.031,-236 429.601,-236 493.534,-236"/>
<polygon fill="black" stroke="black" points="493.762,-239.5 503.762,-236 493.762,-232.5 493.762,-239.5"/>
</g>
<!-- lattice_ldepth -->
<g id="node8" class="node"><title>lattice_ldepth</title>
<ellipse fill="#e5e5e5" stroke="black" cx="360" cy="-177" rx="0" ry="0"/>
</g>
<!-- lattice_lwidth&#45;&gt;lattice_ldepth -->
<g id="edge7" class="edge"><title>lattice_lwidth&#45;&gt;lattice_ldepth</title>
<path fill="none" stroke="black" d="M360,-235.543C360,-216.182 360,-196.822 360,-177.461"/>
</g>
<!-- ldepth -->
<g id="node9" class="node"><title>ldepth</title>
<polygon fill="#e5e5e5" stroke="black" points="720,-188.5 504,-188.5 504,-165.5 720,-165.5 720,-188.5"/>
<text text-anchor="middle" x="612" y="-173.3" font-family="Times,serif" font-size="14.00">Depth</text>
</g>
<!-- lattice_ldepth&#45;&gt;ldepth -->
<g id="edge4" class="edge"><title>lattice_ldepth&#45;&gt;ldepth</title>
<path fill="none" stroke="black" d="M361.046,-177C363.031,-177 429.601,-177 493.534,-177"/>
<polygon fill="black" stroke="black" points="493.762,-180.5 503.762,-177 493.762,-173.5 493.762,-180.5"/>
</g>
<!-- fibcount -->
<g id="node11" class="node"><title>fibcount</title>
<polygon fill="#e5e5e5" stroke="black" points="468,-140.5 252,-140.5 252,-117.5 468,-117.5 468,-140.5"/>
<text text-anchor="middle" x="360" y="-125.3" font-family="Times,serif" font-size="14.00">FiberCount</text>
</g>
<!-- param_fibcount&#45;&gt;fibcount -->
<g id="edge8" class="edge"><title>param_fibcount&#45;&gt;fibcount</title>
<path fill="none" stroke="black" d="M109.046,-129C111.031,-129 177.601,-129 241.534,-129"/>
<polygon fill="black" stroke="black" points="241.762,-132.5 251.762,-129 241.762,-125.5 241.762,-132.5"/>
</g>
<!-- param_fiblength -->
<g id="node12" class="node"><title>param_fiblength</title>
<ellipse fill="#e5e5e5" stroke="black" cx="108" cy="-70" rx="0" ry="0"/>
</g>
<!-- param_fibcount&#45;&gt;param_fiblength -->
<g id="edge13" class="edge"><title>param_fibcount&#45;&gt;param_fiblength</title>
<path fill="none" stroke="black" d="M108,-128.543C108,-109.182 108,-89.8215 108,-70.4609"/>
</g>
<!-- fiblength -->
<g id="node13" class="node"><title>fiblength</title>
<polygon fill="#e5e5e5" stroke="black" points="468,-81.5 252,-81.5 252,-58.5 468,-58.5 468,-81.5"/>
<text text-anchor="middle" x="360" y="-66.3" font-family="Times,serif" font-size="14.00">FiberLength</text>
</g>
<!-- param_fiblength&#45;&gt;fiblength -->
<g id="edge9" class="edge"><title>param_fiblength&#45;&gt;fiblength</title>
<path fill="none" stroke="black" d="M109.046,-70C111.031,-70 177.601,-70 241.534,-70"/>
<polygon fill="black" stroke="black" points="241.762,-73.5001 251.762,-70 241.762,-66.5001 241.762,-73.5001"/>
</g>
<!-- param_cellcount -->
<g id="node14" class="node"><title>param_cellcount</title>
<ellipse fill="#e5e5e5" stroke="black" cx="108" cy="-11" rx="0" ry="0"/>
</g>
<!-- param_fiblength&#45;&gt;param_cellcount -->
<g id="edge14" class="edge"><title>param_fiblength&#45;&gt;param_cellcount</title>
<path fill="none" stroke="black" d="M108,-69.5427C108,-50.1821 108,-30.8215 108,-11.4609"/>
</g>
<!-- cellcount -->
<g id="node15" class="node"><title>cellcount</title>
<polygon fill="#e5e5e5" stroke="black" points="468,-22.5 252,-22.5 252,0.5 468,0.5 468,-22.5"/>
<text text-anchor="middle" x="360" y="-7.3" font-family="Times,serif" font-size="14.00">CellCount</text>
</g>
<!-- param_cellcount&#45;&gt;cellcount -->
<g id="edge10" class="edge"><title>param_cellcount&#45;&gt;cellcount</title>
<path fill="none" stroke="black" d="M109.046,-11C111.031,-11 177.601,-11 241.534,-11"/>
<polygon fill="black" stroke="black" points="241.762,-14.5001 251.762,-11 241.762,-7.5001 241.762,-14.5001"/>
</g>
</g>
</svg>
