<?xml version="1.0" encoding="UTF-8" standalone="no"?>
<!DOCTYPE svg PUBLIC "-//W3C//DTD SVG 1.1//EN"
 "http://www.w3.org/Graphics/SVG/1.1/DTD/svg11.dtd">
<!-- Generated by graphviz version 2.36.0 (20140111.2315)
 -->
<!-- Title: tree Pages: 1 -->
<svg width="728pt" height="705pt"
 viewBox="0.00 0.00 728.00 705.00" xmlns="http://www.w3.org/2000/svg" xmlns:xlink="http://www.w3.org/1999/xlink">
<g id="graph0" class="graph" transform="scale(1 1) rotate(0) translate(4 701)">
<title>tree</title>
<polygon fill="white" stroke="none" points="-4,4 -4,-701 724,-701 724,4 -4,4"/>
<!-- param -->
<g id="node1" class="node"><title>param</title>
<polygon fill="#e5e5e5" stroke="black" points="216,-697.5 0,-697.5 0,-674.5 216,-674.5 216,-697.5"/>
<text text-anchor="middle" x="108" y="-682.3" font-family="Times,serif" font-size="14.00">Parameters</text>
</g>
<!-- param_lattice -->
<g id="node2" class="node"><title>param_lattice</title>
<ellipse fill="#e5e5e5" stroke="black" cx="108" cy="-638" rx="0" ry="0"/>
</g>
<!-- param&#45;&gt;param_lattice -->
<g id="edge16" class="edge"><title>param&#45;&gt;param_lattice</title>
<path fill="none" stroke="black" d="M108,-674.466C108,-662.436 108,-650.405 108,-638.375"/>
</g>
<!-- lattice -->
<g id="node3" class="node"><title>lattice</title>
<polygon fill="#e5e5e5" stroke="black" points="468,-649.5 252,-649.5 252,-626.5 468,-626.5 468,-649.5"/>
<text text-anchor="middle" x="360" y="-634.3" font-family="Times,serif" font-size="14.00">Lattice</text>
</g>
<!-- param_lattice&#45;&gt;lattice -->
<g id="edge1" class="edge"><title>param_lattice&#45;&gt;lattice</title>
<path fill="none" stroke="black" d="M109.046,-638C111.031,-638 177.601,-638 241.534,-638"/>
<polygon fill="black" stroke="black" points="241.762,-641.5 251.762,-638 241.762,-634.5 241.762,-641.5"/>
</g>
<!-- param_alpha -->
<g id="node10" class="node"><title>param_alpha</title>
<ellipse fill="#e5e5e5" stroke="black" cx="108" cy="-424" rx="0" ry="0"/>
</g>
<!-- param_lattice&#45;&gt;param_alpha -->
<g id="edge17" class="edge"><title>param_lattice&#45;&gt;param_alpha</title>
<path fill="none" stroke="black" d="M108,-637.583C108,-566.528 108,-495.473 108,-424.418"/>
</g>
<!-- lattice_lwidth -->
<g id="node6" class="node"><title>lattice_lwidth</title>
<ellipse fill="#e5e5e5" stroke="black" cx="360" cy="-590" rx="0" ry="0"/>
</g>
<!-- lattice&#45;&gt;lattice_lwidth -->
<g id="edge5" class="edge"><title>lattice&#45;&gt;lattice_lwidth</title>
<path fill="none" stroke="black" d="M360,-626.466C360,-614.436 360,-602.405 360,-590.375"/>
</g>
<!-- lattice_lheight -->
<g id="node4" class="node"><title>lattice_lheight</title>
<ellipse fill="#e5e5e5" stroke="black" cx="360" cy="-531" rx="0" ry="0"/>
</g>
<!-- lheight -->
<g id="node5" class="node"><title>lheight</title>
<polygon fill="#e5e5e5" stroke="black" points="720,-542.5 504,-542.5 504,-519.5 720,-519.5 720,-542.5"/>
<text text-anchor="middle" x="612" y="-527.3" font-family="Times,serif" font-size="14.00">Height</text>
</g>
<!-- lattice_lheight&#45;&gt;lheight -->
<g id="edge2" class="edge"><title>lattice_lheight&#45;&gt;lheight</title>
<path fill="none" stroke="black" d="M361.046,-531C363.031,-531 429.601,-531 493.534,-531"/>
<polygon fill="black" stroke="black" points="493.762,-534.5 503.762,-531 493.762,-527.5 493.762,-534.5"/>
</g>
<!-- lattice_ldepth -->
<g id="node8" class="node"><title>lattice_ldepth</title>
<ellipse fill="#e5e5e5" stroke="black" cx="360" cy="-472" rx="0" ry="0"/>
</g>
<!-- lattice_lheight&#45;&gt;lattice_ldepth -->
<g id="edge7" class="edge"><title>lattice_lheight&#45;&gt;lattice_ldepth</title>
<path fill="none" stroke="black" d="M360,-530.543C360,-511.182 360,-491.822 360,-472.461"/>
</g>
<!-- lattice_lwidth&#45;&gt;lattice_lheight -->
<g id="edge6" class="edge"><title>lattice_lwidth&#45;&gt;lattice_lheight</title>
<path fill="none" stroke="black" d="M360,-589.543C360,-570.182 360,-550.822 360,-531.461"/>
</g>
<!-- lwidth -->
<g id="node7" class="node"><title>lwidth</title>
<polygon fill="#e5e5e5" stroke="black" points="720,-601.5 504,-601.5 504,-578.5 720,-578.5 720,-601.5"/>
<text text-anchor="middle" x="612" y="-586.3" font-family="Times,serif" font-size="14.00">Width</text>
</g>
<!-- lattice_lwidth&#45;&gt;lwidth -->
<g id="edge3" class="edge"><title>lattice_lwidth&#45;&gt;lwidth</title>
<path fill="none" stroke="black" d="M361.046,-590C363.031,-590 429.601,-590 493.534,-590"/>
<polygon fill="black" stroke="black" points="493.762,-593.5 503.762,-590 493.762,-586.5 493.762,-593.5"/>
</g>
<!-- ldepth -->
<g id="node9" class="node"><title>ldepth</title>
<polygon fill="#e5e5e5" stroke="black" points="720,-483.5 504,-483.5 504,-460.5 720,-460.5 720,-483.5"/>
<text text-anchor="middle" x="612" y="-468.3" font-family="Times,serif" font-size="14.00">Depth</text>
</g>
<!-- lattice_ldepth&#45;&gt;ldepth -->
<g id="edge4" class="edge"><title>lattice_ldepth&#45;&gt;ldepth</title>
<path fill="none" stroke="black" d="M361.046,-472C363.031,-472 429.601,-472 493.534,-472"/>
<polygon fill="black" stroke="black" points="493.762,-475.5 503.762,-472 493.762,-468.5 493.762,-475.5"/>
</g>
<!-- alpha -->
<g id="node11" class="node"><title>alpha</title>
<polygon fill="#e5e5e5" stroke="black" points="468,-435.5 252,-435.5 252,-412.5 468,-412.5 468,-435.5"/>
<text text-anchor="middle" x="360" y="-420.3" font-family="Times,serif" font-size="14.00">Alpha</text>
</g>
<!-- param_alpha&#45;&gt;alpha -->
<g id="edge8" class="edge"><title>param_alpha&#45;&gt;alpha</title>
<path fill="none" stroke="black" d="M109.046,-424C111.031,-424 177.601,-424 241.534,-424"/>
<polygon fill="black" stroke="black" points="241.762,-427.5 251.762,-424 241.762,-420.5 241.762,-427.5"/>
</g>
<!-- param_beta -->
<g id="node12" class="node"><title>param_beta</title>
<ellipse fill="#e5e5e5" stroke="black" cx="108" cy="-365" rx="0" ry="0"/>
</g>
<!-- param_alpha&#45;&gt;param_beta -->
<g id="edge18" class="edge"><title>param_alpha&#45;&gt;param_beta</title>
<path fill="none" stroke="black" d="M108,-423.543C108,-404.182 108,-384.822 108,-365.461"/>
</g>
<!-- beta -->
<g id="node13" class="node"><title>beta</title>
<polygon fill="#e5e5e5" stroke="black" points="468,-376.5 252,-376.5 252,-353.5 468,-353.5 468,-376.5"/>
<text text-anchor="middle" x="360" y="-361.3" font-family="Times,serif" font-size="14.00">Beta</text>
</g>
<!-- param_beta&#45;&gt;beta -->
<g id="edge9" class="edge"><title>param_beta&#45;&gt;beta</title>
<path fill="none" stroke="black" d="M109.046,-365C111.031,-365 177.601,-365 241.534,-365"/>
<polygon fill="black" stroke="black" points="241.762,-368.5 251.762,-365 241.762,-361.5 241.762,-368.5"/>
</g>
<!-- param_gamma -->
<g id="node14" class="node"><title>param_gamma</title>
<ellipse fill="#e5e5e5" stroke="black" cx="108" cy="-306" rx="0" ry="0"/>
</g>
<!-- param_beta&#45;&gt;param_gamma -->
<g id="edge19" class="edge"><title>param_beta&#45;&gt;param_gamma</title>
<path fill="none" stroke="black" d="M108,-364.543C108,-345.182 108,-325.822 108,-306.461"/>
</g>
<!-- gamma -->
<g id="node15" class="node"><title>gamma</title>
<polygon fill="#e5e5e5" stroke="black" points="468,-317.5 252,-317.5 252,-294.5 468,-294.5 468,-317.5"/>
<text text-anchor="middle" x="360" y="-302.3" font-family="Times,serif" font-size="14.00">Gamma</text>
</g>
<!-- param_gamma&#45;&gt;gamma -->
<g id="edge10" class="edge"><title>param_gamma&#45;&gt;gamma</title>
<path fill="none" stroke="black" d="M109.046,-306C111.031,-306 177.601,-306 241.534,-306"/>
<polygon fill="black" stroke="black" points="241.762,-309.5 251.762,-306 241.762,-302.5 241.762,-309.5"/>
</g>
<!-- param_fibcount -->
<g id="node16" class="node"><title>param_fibcount</title>
<ellipse fill="#e5e5e5" stroke="black" cx="108" cy="-247" rx="0" ry="0"/>
</g>
<!-- param_gamma&#45;&gt;param_fibcount -->
<g id="edge20" class="edge"><title>param_gamma&#45;&gt;param_fibcount</title>
<path fill="none" stroke="black" d="M108,-305.543C108,-286.182 108,-266.822 108,-247.461"/>
</g>
<!-- fibcount -->
<g id="node17" class="node"><title>fibcount</title>
<polygon fill="#e5e5e5" stroke="black" points="468,-258.5 252,-258.5 252,-235.5 468,-235.5 468,-258.5"/>
<text text-anchor="middle" x="360" y="-243.3" font-family="Times,serif" font-size="14.00">FiberCount</text>
</g>
<!-- param_fibcount&#45;&gt;fibcount -->
<g id="edge11" class="edge"><title>param_fibcount&#45;&gt;fibcount</title>
<path fill="none" stroke="black" d="M109.046,-247C111.031,-247 177.601,-247 241.534,-247"/>
<polygon fill="black" stroke="black" points="241.762,-250.5 251.762,-247 241.762,-243.5 241.762,-250.5"/>
</g>
<!-- param_fiblength -->
<g id="node18" class="node"><title>param_fiblength</title>
<ellipse fill="#e5e5e5" stroke="black" cx="108" cy="-188" rx="0" ry="0"/>
</g>
<!-- param_fibcount&#45;&gt;param_fiblength -->
<g id="edge21" class="edge"><title>param_fibcount&#45;&gt;param_fiblength</title>
<path fill="none" stroke="black" d="M108,-246.543C108,-227.182 108,-207.822 108,-188.461"/>
</g>
<!-- fiblength -->
<g id="node19" class="node"><title>fiblength</title>
<polygon fill="#e5e5e5" stroke="black" points="468,-199.5 252,-199.5 252,-176.5 468,-176.5 468,-199.5"/>
<text text-anchor="middle" x="360" y="-184.3" font-family="Times,serif" font-size="14.00">FiberLength</text>
</g>
<!-- param_fiblength&#45;&gt;fiblength -->
<g id="edge12" class="edge"><title>param_fiblength&#45;&gt;fiblength</title>
<path fill="none" stroke="black" d="M109.046,-188C111.031,-188 177.601,-188 241.534,-188"/>
<polygon fill="black" stroke="black" points="241.762,-191.5 251.762,-188 241.762,-184.5 241.762,-191.5"/>
</g>
<!-- param_celldiv -->
<g id="node20" class="node"><title>param_celldiv</title>
<ellipse fill="#e5e5e5" stroke="black" cx="108" cy="-129" rx="0" ry="0"/>
</g>
<!-- param_fiblength&#45;&gt;param_celldiv -->
<g id="edge22" class="edge"><title>param_fiblength&#45;&gt;param_celldiv</title>
<path fill="none" stroke="black" d="M108,-187.543C108,-168.182 108,-148.822 108,-129.461"/>
</g>
<!-- celldiv -->
<g id="node21" class="node"><title>celldiv</title>
<polygon fill="#e5e5e5" stroke="black" points="468,-140.5 252,-140.5 252,-117.5 468,-117.5 468,-140.5"/>
<text text-anchor="middle" x="360" y="-125.3" font-family="Times,serif" font-size="14.00">CellDivisionAge</text>
</g>
<!-- param_celldiv&#45;&gt;celldiv -->
<g id="edge13" class="edge"><title>param_celldiv&#45;&gt;celldiv</title>
<path fill="none" stroke="black" d="M109.046,-129C111.031,-129 177.601,-129 241.534,-129"/>
<polygon fill="black" stroke="black" points="241.762,-132.5 251.762,-129 241.762,-125.5 241.762,-132.5"/>
</g>
<!-- param_maxiter -->
<g id="node22" class="node"><title>param_maxiter</title>
<ellipse fill="#e5e5e5" stroke="black" cx="108" cy="-70" rx="0" ry="0"/>
</g>
<!-- param_celldiv&#45;&gt;param_maxiter -->
<g id="edge23" class="edge"><title>param_celldiv&#45;&gt;param_maxiter</title>
<path fill="none" stroke="black" d="M108,-128.543C108,-109.182 108,-89.8215 108,-70.4609"/>
</g>
<!-- maxiter -->
<g id="node23" class="node"><title>maxiter</title>
<polygon fill="#e5e5e5" stroke="black" points="468,-81.5 252,-81.5 252,-58.5 468,-58.5 468,-81.5"/>
<text text-anchor="middle" x="360" y="-66.3" font-family="Times,serif" font-size="14.00">MaxIteration</text>
</g>
<!-- param_maxiter&#45;&gt;maxiter -->
<g id="edge14" class="edge"><title>param_maxiter&#45;&gt;maxiter</title>
<path fill="none" stroke="black" d="M109.046,-70C111.031,-70 177.601,-70 241.534,-70"/>
<polygon fill="black" stroke="black" points="241.762,-73.5001 251.762,-70 241.762,-66.5001 241.762,-73.5001"/>
</g>
<!-- param_sphereradius -->
<g id="node24" class="node"><title>param_sphereradius</title>
<ellipse fill="#e5e5e5" stroke="black" cx="108" cy="-11" rx="0" ry="0"/>
</g>
<!-- param_maxiter&#45;&gt;param_sphereradius -->
<g id="edge24" class="edge"><title>param_maxiter&#45;&gt;param_sphereradius</title>
<path fill="none" stroke="black" d="M108,-69.5427C108,-50.1821 108,-30.8215 108,-11.4609"/>
</g>
<!-- sphereradius -->
<g id="node25" class="node"><title>sphereradius</title>
<polygon fill="#e5e5e5" stroke="black" points="468,-22.5 252,-22.5 252,0.5 468,0.5 468,-22.5"/>
<text text-anchor="middle" x="360" y="-7.3" font-family="Times,serif" font-size="14.00">SphereRadius</text>
</g>
<!-- param_sphereradius&#45;&gt;sphereradius -->
<g id="edge15" class="edge"><title>param_sphereradius&#45;&gt;sphereradius</title>
<path fill="none" stroke="black" d="M109.046,-11C111.031,-11 177.601,-11 241.534,-11"/>
<polygon fill="black" stroke="black" points="241.762,-14.5001 251.762,-11 241.762,-7.5001 241.762,-14.5001"/>
</g>
</g>
</svg>
