<?xml version="1.0" encoding="UTF-8" standalone="no"?>
<!DOCTYPE svg PUBLIC "-//W3C//DTD SVG 1.1//EN"
 "http://www.w3.org/Graphics/SVG/1.1/DTD/svg11.dtd">
<!-- Generated by graphviz version 2.36.0 (20140111.2315)
 -->
<!-- Title: Class_Diagram Pages: 1 -->
<svg width="717pt" height="664pt"
 viewBox="0.00 0.00 716.76 664.00" xmlns="http://www.w3.org/2000/svg" xmlns:xlink="http://www.w3.org/1999/xlink">
<g id="graph0" class="graph" transform="scale(1 1) rotate(0) translate(4 660)">
<title>Class_Diagram</title>
<polygon fill="white" stroke="none" points="-4,4 -4,-660 712.76,-660 712.76,4 -4,4"/>
<!-- uscp -->
<g id="node1" class="node"><title>uscp</title>
<polygon fill="#bfbfbf" stroke="black" points="225.5,-636.5 225.5,-655.5 270.5,-655.5 270.5,-636.5 225.5,-636.5"/>
<text text-anchor="middle" x="248" y="-643.5" font-family="Helvetica,sans-Serif" font-size="10.00">USCP</text>
</g>
<!-- automaton_cell -->
<g id="node2" class="node"><title>automaton_cell</title>
<polygon fill="white" stroke="black" points="-0.5,-261 -0.5,-417 100.5,-417 100.5,-261 -0.5,-261"/>
<text text-anchor="middle" x="50" y="-405" font-family="Helvetica,sans-Serif" font-size="10.00">AutomatonCell</text>
<polyline fill="none" stroke="black" points="-0.5,-398 100.5,-398 "/>
<text text-anchor="start" x="7.5" y="-386" font-family="Helvetica,sans-Serif" font-size="10.00">&#45; type</text>
<text text-anchor="start" x="7.5" y="-375" font-family="Helvetica,sans-Serif" font-size="10.00">&#45; cellCount</text>
<text text-anchor="start" x="7.5" y="-364" font-family="Helvetica,sans-Serif" font-size="10.00">&#45; ID</text>
<polyline fill="none" stroke="black" points="-0.5,-357 100.5,-357 "/>
<text text-anchor="start" x="7.5" y="-345" font-family="Helvetica,sans-Serif" font-size="10.00">+ AutomatonCell()</text>
<text text-anchor="start" x="7.5" y="-334" font-family="Helvetica,sans-Serif" font-size="10.00">+ getType()</text>
<text text-anchor="start" x="7.5" y="-323" font-family="Helvetica,sans-Serif" font-size="10.00">+ setType()</text>
<text text-anchor="start" x="7.5" y="-312" font-family="Helvetica,sans-Serif" font-size="10.00">+ getCount()</text>
<text text-anchor="start" x="7.5" y="-301" font-family="Helvetica,sans-Serif" font-size="10.00">+ setCount()</text>
<text text-anchor="start" x="7.5" y="-290" font-family="Helvetica,sans-Serif" font-size="10.00">+ getId()</text>
<text text-anchor="start" x="7.5" y="-279" font-family="Helvetica,sans-Serif" font-size="10.00">+ setId()</text>
<text text-anchor="start" x="7.5" y="-268" font-family="Helvetica,sans-Serif" font-size="10.00">+ incrementCount()</text>
</g>
<!-- uscp&#45;&gt;automaton_cell -->
<g id="edge1" class="edge"><title>uscp&#45;&gt;automaton_cell</title>
<path fill="none" stroke="#404040" d="M225.178,-642.64C181.184,-637.585 87.1947,-624.162 67,-600 27.6735,-552.949 25.23,-482.821 31.635,-427.251"/>
<polygon fill="#404040" stroke="#404040" points="35.1423,-427.413 32.927,-417.053 28.1978,-426.533 35.1423,-427.413"/>
</g>
<!-- cell -->
<g id="node3" class="node"><title>cell</title>
<polygon fill="white" stroke="black" points="313,-217 313,-461 417,-461 417,-217 313,-217"/>
<text text-anchor="middle" x="365" y="-449" font-family="Helvetica,sans-Serif" font-size="10.00">Cell</text>
<polyline fill="none" stroke="black" points="313,-442 417,-442 "/>
<text text-anchor="start" x="321" y="-430" font-family="Helvetica,sans-Serif" font-size="10.00">&#45; id</text>
<text text-anchor="start" x="321" y="-419" font-family="Helvetica,sans-Serif" font-size="10.00">&#45; radius</text>
<text text-anchor="start" x="321" y="-408" font-family="Helvetica,sans-Serif" font-size="10.00">&#45; senseRadius</text>
<text text-anchor="start" x="321" y="-397" font-family="Helvetica,sans-Serif" font-size="10.00">&#45; eCadherin</text>
<text text-anchor="start" x="321" y="-386" font-family="Helvetica,sans-Serif" font-size="10.00">&#45; EB</text>
<polyline fill="none" stroke="black" points="313,-379 417,-379 "/>
<text text-anchor="start" x="321" y="-367" font-family="Helvetica,sans-Serif" font-size="10.00">+ Cell()</text>
<text text-anchor="start" x="321" y="-356" font-family="Helvetica,sans-Serif" font-size="10.00">+ ~Cell()</text>
<text text-anchor="start" x="321" y="-345" font-family="Helvetica,sans-Serif" font-size="10.00">+ getId()</text>
<text text-anchor="start" x="321" y="-334" font-family="Helvetica,sans-Serif" font-size="10.00">+ setId()</text>
<text text-anchor="start" x="321" y="-323" font-family="Helvetica,sans-Serif" font-size="10.00">+ getRadius()</text>
<text text-anchor="start" x="321" y="-312" font-family="Helvetica,sans-Serif" font-size="10.00">+ setRadius()</text>
<text text-anchor="start" x="321" y="-301" font-family="Helvetica,sans-Serif" font-size="10.00">+ getSenseRadius()</text>
<text text-anchor="start" x="321" y="-290" font-family="Helvetica,sans-Serif" font-size="10.00">+ setSenseRadius()</text>
<text text-anchor="start" x="321" y="-279" font-family="Helvetica,sans-Serif" font-size="10.00">+ getCentroid()</text>
<text text-anchor="start" x="321" y="-268" font-family="Helvetica,sans-Serif" font-size="10.00">+ setCentroid()</text>
<text text-anchor="start" x="321" y="-257" font-family="Helvetica,sans-Serif" font-size="10.00">+ getECadherin()</text>
<text text-anchor="start" x="321" y="-246" font-family="Helvetica,sans-Serif" font-size="10.00">+ setECadherin()</text>
<text text-anchor="start" x="321" y="-235" font-family="Helvetica,sans-Serif" font-size="10.00">+ getEB()</text>
<text text-anchor="start" x="321" y="-224" font-family="Helvetica,sans-Serif" font-size="10.00">+ setEB()</text>
</g>
<!-- uscp&#45;&gt;cell -->
<g id="edge2" class="edge"><title>uscp&#45;&gt;cell</title>
<path fill="none" stroke="#404040" d="M270.828,-640.331C292.199,-634.67 323.148,-622.895 339,-600 364.635,-562.977 374.299,-515.572 376.523,-471.404"/>
<polygon fill="#404040" stroke="#404040" points="380.03,-471.274 376.911,-461.148 373.035,-471.009 380.03,-471.274"/>
</g>
<!-- environment -->
<g id="node4" class="node"><title>environment</title>
<polygon fill="white" stroke="black" points="386,-498.5 386,-599.5 500,-599.5 500,-498.5 386,-498.5"/>
<text text-anchor="middle" x="443" y="-587.5" font-family="Helvetica,sans-Serif" font-size="10.00">Environment</text>
<polyline fill="none" stroke="black" points="386,-580.5 500,-580.5 "/>
<text text-anchor="middle" x="443" y="-568.5" font-family="Helvetica,sans-Serif" font-size="10.00"> </text>
<polyline fill="none" stroke="black" points="386,-561.5 500,-561.5 "/>
<text text-anchor="start" x="394" y="-549.5" font-family="Helvetica,sans-Serif" font-size="10.00">+ Environment()</text>
<text text-anchor="start" x="394" y="-538.5" font-family="Helvetica,sans-Serif" font-size="10.00">+ setupECM()</text>
<text text-anchor="start" x="394" y="-527.5" font-family="Helvetica,sans-Serif" font-size="10.00">+ createCells()</text>
<text text-anchor="start" x="394" y="-516.5" font-family="Helvetica,sans-Serif" font-size="10.00">&#45; generatePtFreqMap()</text>
<text text-anchor="start" x="394" y="-505.5" font-family="Helvetica,sans-Serif" font-size="10.00">&#45; drawLine()</text>
</g>
<!-- uscp&#45;&gt;environment -->
<g id="edge3" class="edge"><title>uscp&#45;&gt;environment</title>
<path fill="none" stroke="#404040" d="M270.704,-638.745C296.162,-631.285 338.294,-617.584 372,-600 373.562,-599.185 375.13,-598.34 376.699,-597.47"/>
<polygon fill="#404040" stroke="#404040" points="378.799,-600.298 385.677,-592.24 375.275,-594.249 378.799,-600.298"/>
</g>
<!-- simulation -->
<g id="node7" class="node"><title>simulation</title>
<polygon fill="white" stroke="black" points="240,-498.5 240,-599.5 330,-599.5 330,-498.5 240,-498.5"/>
<text text-anchor="middle" x="285" y="-587.5" font-family="Helvetica,sans-Serif" font-size="10.00">Simulation</text>
<polyline fill="none" stroke="black" points="240,-580.5 330,-580.5 "/>
<text text-anchor="middle" x="285" y="-568.5" font-family="Helvetica,sans-Serif" font-size="10.00"> </text>
<polyline fill="none" stroke="black" points="240,-561.5 330,-561.5 "/>
<text text-anchor="start" x="248" y="-549.5" font-family="Helvetica,sans-Serif" font-size="10.00">+ Simulation()</text>
<text text-anchor="start" x="248" y="-538.5" font-family="Helvetica,sans-Serif" font-size="10.00">+ generateOpId()</text>
<text text-anchor="start" x="248" y="-527.5" font-family="Helvetica,sans-Serif" font-size="10.00">+ simulate()</text>
<text text-anchor="start" x="248" y="-516.5" font-family="Helvetica,sans-Serif" font-size="10.00">&#45; moveCells()</text>
<text text-anchor="start" x="248" y="-505.5" font-family="Helvetica,sans-Serif" font-size="10.00">&#45; updateEB()</text>
</g>
<!-- uscp&#45;&gt;simulation -->
<g id="edge4" class="edge"><title>uscp&#45;&gt;simulation</title>
<path fill="none" stroke="#404040" d="M251.415,-636.233C254.016,-629.554 257.848,-619.713 262.003,-609.046"/>
<polygon fill="#404040" stroke="#404040" points="265.346,-610.106 265.714,-599.517 258.824,-607.565 265.346,-610.106"/>
</g>
<!-- simulation_param -->
<g id="node8" class="node"><title>simulation_param</title>
<polygon fill="white" stroke="black" points="119,-239 119,-439 257,-439 257,-239 119,-239"/>
<text text-anchor="middle" x="188" y="-427" font-family="Helvetica,sans-Serif" font-size="10.00">SimulationParameters</text>
<polyline fill="none" stroke="black" points="119,-420 257,-420 "/>
<text text-anchor="start" x="127" y="-408" font-family="Helvetica,sans-Serif" font-size="10.00">&#45; latticeHeight</text>
<text text-anchor="start" x="127" y="-397" font-family="Helvetica,sans-Serif" font-size="10.00">&#45; latticeWidth</text>
<text text-anchor="start" x="127" y="-386" font-family="Helvetica,sans-Serif" font-size="10.00">&#45; latticeDepth</text>
<text text-anchor="start" x="127" y="-375" font-family="Helvetica,sans-Serif" font-size="10.00">&#45; fiberLength</text>
<text text-anchor="start" x="127" y="-364" font-family="Helvetica,sans-Serif" font-size="10.00">&#45; fiberCount</text>
<polyline fill="none" stroke="black" points="119,-357 257,-357 "/>
<text text-anchor="start" x="127" y="-345" font-family="Helvetica,sans-Serif" font-size="10.00">+ SimulationParameters()</text>
<text text-anchor="start" x="127" y="-334" font-family="Helvetica,sans-Serif" font-size="10.00">+ ~SimulationParameters()</text>
<text text-anchor="start" x="127" y="-323" font-family="Helvetica,sans-Serif" font-size="10.00">+ loadParameters()</text>
<text text-anchor="start" x="127" y="-312" font-family="Helvetica,sans-Serif" font-size="10.00">+ loadParametersFromFile()</text>
<text text-anchor="start" x="127" y="-301" font-family="Helvetica,sans-Serif" font-size="10.00">+ getFiberCount()</text>
<text text-anchor="start" x="127" y="-290" font-family="Helvetica,sans-Serif" font-size="10.00">+ setFiberCount()</text>
<text text-anchor="start" x="127" y="-279" font-family="Helvetica,sans-Serif" font-size="10.00">+ getFiberLength()</text>
<text text-anchor="start" x="127" y="-268" font-family="Helvetica,sans-Serif" font-size="10.00">+ getLatticeDepth()</text>
<text text-anchor="start" x="127" y="-257" font-family="Helvetica,sans-Serif" font-size="10.00">+ getLatticeHeight()</text>
<text text-anchor="start" x="127" y="-246" font-family="Helvetica,sans-Serif" font-size="10.00">+ getLatticeWidth()</text>
</g>
<!-- uscp&#45;&gt;simulation_param -->
<g id="edge5" class="edge"><title>uscp&#45;&gt;simulation_param</title>
<path fill="none" stroke="#404040" d="M244.084,-636.206C240.242,-627.256 234.468,-612.904 231,-600 217.89,-551.221 208.091,-496.16 201.184,-449.307"/>
<polygon fill="#404040" stroke="#404040" points="204.608,-448.527 199.711,-439.132 197.68,-449.531 204.608,-448.527"/>
</g>
<!-- utilities -->
<g id="node9" class="node"><title>utilities</title>
<polygon fill="white" stroke="black" points="76.5,-498.5 76.5,-599.5 183.5,-599.5 183.5,-498.5 76.5,-498.5"/>
<text text-anchor="middle" x="130" y="-587.5" font-family="Helvetica,sans-Serif" font-size="10.00">Utilities</text>
<polyline fill="none" stroke="black" points="76.5,-580.5 183.5,-580.5 "/>
<text text-anchor="start" x="84.5" y="-568.5" font-family="Helvetica,sans-Serif" font-size="10.00">+ TYPE</text>
<text text-anchor="start" x="84.5" y="-557.5" font-family="Helvetica,sans-Serif" font-size="10.00">+ COUNT</text>
<text text-anchor="start" x="84.5" y="-546.5" font-family="Helvetica,sans-Serif" font-size="10.00">+ ID</text>
<polyline fill="none" stroke="black" points="76.5,-539.5 183.5,-539.5 "/>
<text text-anchor="start" x="84.5" y="-527.5" font-family="Helvetica,sans-Serif" font-size="10.00">+ Utilities()</text>
<text text-anchor="start" x="84.5" y="-516.5" font-family="Helvetica,sans-Serif" font-size="10.00">+ ~Utilities()</text>
<text text-anchor="start" x="84.5" y="-505.5" font-family="Helvetica,sans-Serif" font-size="10.00">+ generateECMFile()</text>
</g>
<!-- uscp&#45;&gt;utilities -->
<g id="edge6" class="edge"><title>uscp&#45;&gt;utilities</title>
<path fill="none" stroke="#404040" d="M237.11,-636.233C226.423,-627.629 209.22,-613.779 191.699,-599.673"/>
<polygon fill="#404040" stroke="#404040" points="193.632,-596.736 183.648,-593.191 189.243,-602.189 193.632,-596.736"/>
</g>
<!-- point -->
<g id="node6" class="node"><title>point</title>
<polygon fill="white" stroke="black" points="451,-1 451,-179 511,-179 511,-1 451,-1"/>
<text text-anchor="middle" x="481" y="-167" font-family="Helvetica,sans-Serif" font-size="10.00">Point</text>
<polyline fill="none" stroke="black" points="451,-160 511,-160 "/>
<text text-anchor="start" x="459" y="-148" font-family="Helvetica,sans-Serif" font-size="10.00">&#45; x</text>
<text text-anchor="start" x="459" y="-137" font-family="Helvetica,sans-Serif" font-size="10.00">&#45; y</text>
<text text-anchor="start" x="459" y="-126" font-family="Helvetica,sans-Serif" font-size="10.00">&#45; z</text>
<polyline fill="none" stroke="black" points="451,-119 511,-119 "/>
<text text-anchor="start" x="459" y="-107" font-family="Helvetica,sans-Serif" font-size="10.00">+ Point()</text>
<text text-anchor="start" x="459" y="-96" font-family="Helvetica,sans-Serif" font-size="10.00">+ Point()</text>
<text text-anchor="start" x="459" y="-85" font-family="Helvetica,sans-Serif" font-size="10.00">+ getX()</text>
<text text-anchor="start" x="459" y="-74" font-family="Helvetica,sans-Serif" font-size="10.00">+ setX()</text>
<text text-anchor="start" x="459" y="-63" font-family="Helvetica,sans-Serif" font-size="10.00">+ getY()</text>
<text text-anchor="start" x="459" y="-52" font-family="Helvetica,sans-Serif" font-size="10.00">+ setY()</text>
<text text-anchor="start" x="459" y="-41" font-family="Helvetica,sans-Serif" font-size="10.00">+ getZ()</text>
<text text-anchor="start" x="459" y="-30" font-family="Helvetica,sans-Serif" font-size="10.00">+ setZ()</text>
<text text-anchor="start" x="459" y="-19" font-family="Helvetica,sans-Serif" font-size="10.00">+ getVar()</text>
<text text-anchor="start" x="459" y="-8" font-family="Helvetica,sans-Serif" font-size="10.00">+ setVar()</text>
</g>
<!-- cell&#45;&gt;point -->
<g id="edge7" class="edge"><title>cell&#45;&gt;point</title>
<path fill="none" stroke="#404040" d="M417.062,-227.144C427.045,-205.887 437.265,-184.125 446.523,-164.412"/>
<polygon fill="#404040" stroke="#404040" points="449.761,-165.751 450.844,-155.211 443.425,-162.775 449.761,-165.751"/>
</g>
<!-- environment&#45;&gt;automaton_cell -->
<g id="edge8" class="edge"><title>environment&#45;&gt;automaton_cell</title>
<path fill="none" stroke="#404040" d="M385.913,-516.876C370.991,-509.773 354.684,-502.887 339,-498 240.636,-467.353 192.955,-523.1 110,-462 97.3722,-452.699 87.2574,-440.008 79.202,-426.312"/>
<polygon fill="#404040" stroke="#404040" points="82.0779,-424.277 74.2,-417.193 75.9404,-427.644 82.0779,-424.277"/>
</g>
<!-- environment&#45;&gt;cell -->
<g id="edge9" class="edge"><title>environment&#45;&gt;cell</title>
<path fill="none" stroke="#404040" d="M424.416,-498.443C421.172,-489.792 417.666,-480.442 414.035,-470.759"/>
<polygon fill="#404040" stroke="#404040" points="417.308,-469.521 410.52,-461.387 410.754,-471.979 417.308,-469.521"/>
</g>
<!-- line -->
<g id="node5" class="node"><title>line</title>
<polygon fill="white" stroke="black" points="539,-250 539,-428 657,-428 657,-250 539,-250"/>
<text text-anchor="middle" x="598" y="-416" font-family="Helvetica,sans-Serif" font-size="10.00">Line</text>
<polyline fill="none" stroke="black" points="539,-409 657,-409 "/>
<text text-anchor="start" x="547" y="-397" font-family="Helvetica,sans-Serif" font-size="10.00">&#45; id</text>
<text text-anchor="start" x="547" y="-386" font-family="Helvetica,sans-Serif" font-size="10.00">&#45; numberOfPoints</text>
<polyline fill="none" stroke="black" points="539,-379 657,-379 "/>
<text text-anchor="start" x="547" y="-367" font-family="Helvetica,sans-Serif" font-size="10.00">+ Line()</text>
<text text-anchor="start" x="547" y="-356" font-family="Helvetica,sans-Serif" font-size="10.00">+ Line()</text>
<text text-anchor="start" x="547" y="-345" font-family="Helvetica,sans-Serif" font-size="10.00">+ Line()</text>
<text text-anchor="start" x="547" y="-334" font-family="Helvetica,sans-Serif" font-size="10.00">+ ~Line()</text>
<text text-anchor="start" x="547" y="-323" font-family="Helvetica,sans-Serif" font-size="10.00">+ getId()</text>
<text text-anchor="start" x="547" y="-312" font-family="Helvetica,sans-Serif" font-size="10.00">+ setId()</text>
<text text-anchor="start" x="547" y="-301" font-family="Helvetica,sans-Serif" font-size="10.00">+ getNumberOfPoints()</text>
<text text-anchor="start" x="547" y="-290" font-family="Helvetica,sans-Serif" font-size="10.00">+ getPoint()</text>
<text text-anchor="start" x="547" y="-279" font-family="Helvetica,sans-Serif" font-size="10.00">+ setPoint()</text>
<text text-anchor="start" x="547" y="-268" font-family="Helvetica,sans-Serif" font-size="10.00">+ getPointArray()</text>
<text text-anchor="start" x="547" y="-257" font-family="Helvetica,sans-Serif" font-size="10.00">+ setPointArray()</text>
</g>
<!-- environment&#45;&gt;line -->
<g id="edge10" class="edge"><title>environment&#45;&gt;line</title>
<path fill="none" stroke="#404040" d="M497.976,-498.377C509.21,-486.978 520.491,-474.513 530,-462 535.997,-454.109 541.813,-445.627 547.352,-436.945"/>
<polygon fill="#404040" stroke="#404040" points="550.476,-438.548 552.795,-428.21 544.536,-434.846 550.476,-438.548"/>
</g>
<!-- environment&#45;&gt;point -->
<g id="edge11" class="edge"><title>environment&#45;&gt;point</title>
<path fill="none" stroke="#404040" d="M500.215,-543.536C553.138,-536.021 629.025,-515.889 666,-462 727.857,-371.847 717.29,-312.556 666,-216 635.421,-158.434 565.19,-122.56 520.594,-104.718"/>
<polygon fill="#404040" stroke="#404040" points="521.806,-101.435 511.218,-101.081 519.275,-107.961 521.806,-101.435"/>
</g>
<!-- environment&#45;&gt;simulation_param -->
<g id="edge12" class="edge"><title>environment&#45;&gt;simulation_param</title>
<path fill="none" stroke="#404040" d="M385.998,-517.2C359.949,-502.024 329.327,-482.579 304,-462 290.632,-451.138 277.272,-438.812 264.623,-426.271"/>
<polygon fill="#404040" stroke="#404040" points="266.797,-423.494 257.264,-418.872 261.834,-428.43 266.797,-423.494"/>
</g>
<!-- var -->
<g id="node10" class="node"><title>var</title>
<polygon fill="white" stroke="black" points="435,-239 435,-439 521,-439 521,-239 435,-239"/>
<text text-anchor="middle" x="478" y="-427" font-family="Helvetica,sans-Serif" font-size="10.00">Var</text>
<polyline fill="none" stroke="black" points="435,-420 521,-420 "/>
<text text-anchor="start" x="443" y="-408" font-family="Helvetica,sans-Serif" font-size="10.00">&#45; varName</text>
<text text-anchor="start" x="443" y="-397" font-family="Helvetica,sans-Serif" font-size="10.00">&#45; index</text>
<text text-anchor="start" x="443" y="-386" font-family="Helvetica,sans-Serif" font-size="10.00">&#45; delta</text>
<text text-anchor="start" x="443" y="-375" font-family="Helvetica,sans-Serif" font-size="10.00">&#45; value</text>
<polyline fill="none" stroke="black" points="435,-368 521,-368 "/>
<text text-anchor="start" x="443" y="-356" font-family="Helvetica,sans-Serif" font-size="10.00">+ Var()</text>
<text text-anchor="start" x="443" y="-345" font-family="Helvetica,sans-Serif" font-size="10.00">+ Var()</text>
<text text-anchor="start" x="443" y="-334" font-family="Helvetica,sans-Serif" font-size="10.00">+ ~Var()</text>
<text text-anchor="start" x="443" y="-323" font-family="Helvetica,sans-Serif" font-size="10.00">+ getVarName()</text>
<text text-anchor="start" x="443" y="-312" font-family="Helvetica,sans-Serif" font-size="10.00">+ setVarName()</text>
<text text-anchor="start" x="443" y="-301" font-family="Helvetica,sans-Serif" font-size="10.00">+ getIndex()</text>
<text text-anchor="start" x="443" y="-290" font-family="Helvetica,sans-Serif" font-size="10.00">+ setIndex()</text>
<text text-anchor="start" x="443" y="-279" font-family="Helvetica,sans-Serif" font-size="10.00">+ getDelta()</text>
<text text-anchor="start" x="443" y="-268" font-family="Helvetica,sans-Serif" font-size="10.00">+ setDelta()</text>
<text text-anchor="start" x="443" y="-257" font-family="Helvetica,sans-Serif" font-size="10.00">+ getValue()</text>
<text text-anchor="start" x="443" y="-246" font-family="Helvetica,sans-Serif" font-size="10.00">+ setValue()</text>
</g>
<!-- environment&#45;&gt;var -->
<g id="edge13" class="edge"><title>environment&#45;&gt;var</title>
<path fill="none" stroke="#404040" d="M451.339,-498.443C453.84,-483.577 456.69,-466.644 459.573,-449.511"/>
<polygon fill="#404040" stroke="#404040" points="463.064,-449.857 461.272,-439.414 456.161,-448.695 463.064,-449.857"/>
</g>
<!-- line&#45;&gt;point -->
<g id="edge14" class="edge"><title>line&#45;&gt;point</title>
<path fill="none" stroke="#404040" d="M556.256,-249.873C542.93,-221.741 528.337,-190.934 515.578,-163.998"/>
<polygon fill="#404040" stroke="#404040" points="518.591,-162.182 511.147,-154.643 512.265,-165.179 518.591,-162.182"/>
</g>
<!-- simulation&#45;&gt;automaton_cell -->
<g id="edge15" class="edge"><title>simulation&#45;&gt;automaton_cell</title>
<path fill="none" stroke="#404040" d="M239.964,-522.855C224.852,-514.669 207.819,-505.71 192,-498 156.221,-480.562 138.748,-489.527 110,-462 99.3342,-451.787 90.2981,-439.28 82.7321,-426.209"/>
<polygon fill="#404040" stroke="#404040" points="85.6074,-424.173 77.7271,-417.092 79.4711,-427.542 85.6074,-424.173"/>
</g>
<!-- simulation&#45;&gt;cell -->
<g id="edge16" class="edge"><title>simulation&#45;&gt;cell</title>
<path fill="none" stroke="#404040" d="M304.06,-498.443C307.388,-489.792 310.984,-480.442 314.708,-470.759"/>
<polygon fill="#404040" stroke="#404040" points="317.99,-471.976 318.313,-461.387 311.456,-469.464 317.99,-471.976"/>
</g>
<!-- simulation&#45;&gt;point -->
<g id="edge17" class="edge"><title>simulation&#45;&gt;point</title>
<path fill="none" stroke="#404040" d="M275.194,-498.481C264.347,-430.211 254.353,-305.482 304,-216 334.203,-161.563 399.32,-125.272 441.592,-106.414"/>
<polygon fill="#404040" stroke="#404040" points="442.985,-109.625 450.766,-102.434 440.199,-103.203 442.985,-109.625"/>
</g>
<!-- simulation&#45;&gt;simulation_param -->
<g id="edge18" class="edge"><title>simulation&#45;&gt;simulation_param</title>
<path fill="none" stroke="#404040" d="M261.889,-498.443C254.827,-483.299 246.764,-466.01 238.622,-448.55"/>
<polygon fill="#404040" stroke="#404040" points="241.76,-446.998 234.361,-439.414 235.416,-449.957 241.76,-446.998"/>
</g>
<!-- utilities&#45;&gt;automaton_cell -->
<g id="edge19" class="edge"><title>utilities&#45;&gt;automaton_cell</title>
<path fill="none" stroke="#404040" d="M110.94,-498.443C102.698,-477.015 92.8049,-451.293 83.4104,-426.867"/>
<polygon fill="#404040" stroke="#404040" points="86.5572,-425.299 79.7007,-417.222 80.0238,-427.812 86.5572,-425.299"/>
</g>
<!-- utilities&#45;&gt;simulation_param -->
<g id="edge20" class="edge"><title>utilities&#45;&gt;simulation_param</title>
<path fill="none" stroke="#404040" d="M143.819,-498.443C147.964,-483.577 152.686,-466.644 157.463,-449.511"/>
<polygon fill="#404040" stroke="#404040" points="160.964,-449.987 160.279,-439.414 154.221,-448.107 160.964,-449.987"/>
</g>
</g>
</svg>
