<?xml version="1.0" encoding="UTF-8" standalone="no"?>
<!DOCTYPE svg PUBLIC "-//W3C//DTD SVG 1.1//EN"
 "http://www.w3.org/Graphics/SVG/1.1/DTD/svg11.dtd">
<!-- Generated by graphviz version 2.36.0 (20140111.2315)
 -->
<!-- Title: Class_Diagram Pages: 1 -->
<svg width="753pt" height="836pt"
 viewBox="0.00 0.00 753.13 836.00" xmlns="http://www.w3.org/2000/svg" xmlns:xlink="http://www.w3.org/1999/xlink">
<g id="graph0" class="graph" transform="scale(1 1) rotate(0) translate(4 832)">
<title>Class_Diagram</title>
<polygon fill="white" stroke="none" points="-4,4 -4,-832 749.127,-832 749.127,4 -4,4"/>
<!-- uscp -->
<g id="node1" class="node"><title>uscp</title>
<polygon fill="#bfbfbf" stroke="black" points="219.5,-783.5 219.5,-802.5 264.5,-802.5 264.5,-783.5 219.5,-783.5"/>
<text text-anchor="middle" x="242" y="-790.5" font-family="Helvetica,sans-Serif" font-size="10.00">USCP</text>
</g>
<!-- automaton_cell -->
<g id="node2" class="node"><title>automaton_cell</title>
<polygon fill="white" stroke="black" points="-0.5,-305 -0.5,-461 100.5,-461 100.5,-305 -0.5,-305"/>
<text text-anchor="middle" x="50" y="-449" font-family="Helvetica,sans-Serif" font-size="10.00">AutomatonCell</text>
<polyline fill="none" stroke="black" points="-0.5,-442 100.5,-442 "/>
<text text-anchor="start" x="7.5" y="-430" font-family="Helvetica,sans-Serif" font-size="10.00">&#45; type</text>
<text text-anchor="start" x="7.5" y="-419" font-family="Helvetica,sans-Serif" font-size="10.00">&#45; cellCount</text>
<text text-anchor="start" x="7.5" y="-408" font-family="Helvetica,sans-Serif" font-size="10.00">&#45; ID</text>
<polyline fill="none" stroke="black" points="-0.5,-401 100.5,-401 "/>
<text text-anchor="start" x="7.5" y="-389" font-family="Helvetica,sans-Serif" font-size="10.00">+ AutomatonCell()</text>
<text text-anchor="start" x="7.5" y="-378" font-family="Helvetica,sans-Serif" font-size="10.00">+ getType()</text>
<text text-anchor="start" x="7.5" y="-367" font-family="Helvetica,sans-Serif" font-size="10.00">+ setType()</text>
<text text-anchor="start" x="7.5" y="-356" font-family="Helvetica,sans-Serif" font-size="10.00">+ getCount()</text>
<text text-anchor="start" x="7.5" y="-345" font-family="Helvetica,sans-Serif" font-size="10.00">+ setCount()</text>
<text text-anchor="start" x="7.5" y="-334" font-family="Helvetica,sans-Serif" font-size="10.00">+ getId()</text>
<text text-anchor="start" x="7.5" y="-323" font-family="Helvetica,sans-Serif" font-size="10.00">+ setId()</text>
<text text-anchor="start" x="7.5" y="-312" font-family="Helvetica,sans-Serif" font-size="10.00">+ incrementCount()</text>
</g>
<!-- uscp&#45;&gt;automaton_cell -->
<g id="edge1" class="edge"><title>uscp&#45;&gt;automaton_cell</title>
<path fill="none" stroke="#404040" d="M219.33,-791.222C178.458,-788.453 93.1306,-776.129 55,-722 3.99849,-649.6 11.3866,-545.111 26.0486,-471.52"/>
<polygon fill="#404040" stroke="#404040" points="29.5546,-471.85 28.1605,-461.347 22.7008,-470.427 29.5546,-471.85"/>
</g>
<!-- cell -->
<g id="node3" class="node"><title>cell</title>
<polygon fill="white" stroke="black" points="313.5,-217 313.5,-549 438.5,-549 438.5,-217 313.5,-217"/>
<text text-anchor="middle" x="376" y="-537" font-family="Helvetica,sans-Serif" font-size="10.00">Cell</text>
<polyline fill="none" stroke="black" points="313.5,-530 438.5,-530 "/>
<text text-anchor="start" x="321.5" y="-518" font-family="Helvetica,sans-Serif" font-size="10.00">&#45; id</text>
<text text-anchor="start" x="321.5" y="-507" font-family="Helvetica,sans-Serif" font-size="10.00">&#45; radius</text>
<text text-anchor="start" x="321.5" y="-496" font-family="Helvetica,sans-Serif" font-size="10.00">&#45; senseRadius</text>
<text text-anchor="start" x="321.5" y="-485" font-family="Helvetica,sans-Serif" font-size="10.00">&#45; eCadherin</text>
<text text-anchor="start" x="321.5" y="-474" font-family="Helvetica,sans-Serif" font-size="10.00">&#45; EB</text>
<text text-anchor="start" x="321.5" y="-463" font-family="Helvetica,sans-Serif" font-size="10.00">&#45; geneticCode[3]</text>
<text text-anchor="start" x="321.5" y="-452" font-family="Helvetica,sans-Serif" font-size="10.00">&#45; age</text>
<polyline fill="none" stroke="black" points="313.5,-445 438.5,-445 "/>
<text text-anchor="start" x="321.5" y="-433" font-family="Helvetica,sans-Serif" font-size="10.00">+ Cell()</text>
<text text-anchor="start" x="321.5" y="-422" font-family="Helvetica,sans-Serif" font-size="10.00">+ ~Cell()</text>
<text text-anchor="start" x="321.5" y="-411" font-family="Helvetica,sans-Serif" font-size="10.00">+ getId()</text>
<text text-anchor="start" x="321.5" y="-400" font-family="Helvetica,sans-Serif" font-size="10.00">+ setId()</text>
<text text-anchor="start" x="321.5" y="-389" font-family="Helvetica,sans-Serif" font-size="10.00">+ getRadius()</text>
<text text-anchor="start" x="321.5" y="-378" font-family="Helvetica,sans-Serif" font-size="10.00">+ setRadius()</text>
<text text-anchor="start" x="321.5" y="-367" font-family="Helvetica,sans-Serif" font-size="10.00">+ getSenseRadius()</text>
<text text-anchor="start" x="321.5" y="-356" font-family="Helvetica,sans-Serif" font-size="10.00">+ setSenseRadius()</text>
<text text-anchor="start" x="321.5" y="-345" font-family="Helvetica,sans-Serif" font-size="10.00">+ getCentroid()</text>
<text text-anchor="start" x="321.5" y="-334" font-family="Helvetica,sans-Serif" font-size="10.00">+ setCentroid()</text>
<text text-anchor="start" x="321.5" y="-323" font-family="Helvetica,sans-Serif" font-size="10.00">+ getECadherin()</text>
<text text-anchor="start" x="321.5" y="-312" font-family="Helvetica,sans-Serif" font-size="10.00">+ setECadherin()</text>
<text text-anchor="start" x="321.5" y="-301" font-family="Helvetica,sans-Serif" font-size="10.00">+ getEB()</text>
<text text-anchor="start" x="321.5" y="-290" font-family="Helvetica,sans-Serif" font-size="10.00">+ setEB()</text>
<text text-anchor="start" x="321.5" y="-279" font-family="Helvetica,sans-Serif" font-size="10.00">+ getGeneticCode()</text>
<text text-anchor="start" x="321.5" y="-268" font-family="Helvetica,sans-Serif" font-size="10.00">+ setGeneticCode()</text>
<text text-anchor="start" x="321.5" y="-257" font-family="Helvetica,sans-Serif" font-size="10.00">+ getAge()</text>
<text text-anchor="start" x="321.5" y="-246" font-family="Helvetica,sans-Serif" font-size="10.00">+ setAge()</text>
<text text-anchor="start" x="321.5" y="-235" font-family="Helvetica,sans-Serif" font-size="10.00">+ incrementAge()</text>
<text text-anchor="start" x="321.5" y="-224" font-family="Helvetica,sans-Serif" font-size="10.00">+ getFavorableLocation()</text>
</g>
<!-- uscp&#45;&gt;cell -->
<g id="edge2" class="edge"><title>uscp&#45;&gt;cell</title>
<path fill="none" stroke="#404040" d="M248.611,-783.302C254.609,-775.856 264.019,-765.224 274,-758 304.603,-735.85 329.556,-753.101 351,-722 369.663,-694.932 376.796,-627.085 378.909,-559.221"/>
<polygon fill="#404040" stroke="#404040" points="382.408,-559.306 379.185,-549.213 375.411,-559.112 382.408,-559.306"/>
</g>
<!-- environment -->
<g id="node4" class="node"><title>environment</title>
<polygon fill="white" stroke="black" points="398,-603.5 398,-704.5 512,-704.5 512,-603.5 398,-603.5"/>
<text text-anchor="middle" x="455" y="-692.5" font-family="Helvetica,sans-Serif" font-size="10.00">Environment</text>
<polyline fill="none" stroke="black" points="398,-685.5 512,-685.5 "/>
<text text-anchor="middle" x="455" y="-673.5" font-family="Helvetica,sans-Serif" font-size="10.00"> </text>
<polyline fill="none" stroke="black" points="398,-666.5 512,-666.5 "/>
<text text-anchor="start" x="406" y="-654.5" font-family="Helvetica,sans-Serif" font-size="10.00">+ Environment()</text>
<text text-anchor="start" x="406" y="-643.5" font-family="Helvetica,sans-Serif" font-size="10.00">+ setupECM()</text>
<text text-anchor="start" x="406" y="-632.5" font-family="Helvetica,sans-Serif" font-size="10.00">+ createCells()</text>
<text text-anchor="start" x="406" y="-621.5" font-family="Helvetica,sans-Serif" font-size="10.00">&#45; generatePtFreqMap()</text>
<text text-anchor="start" x="406" y="-610.5" font-family="Helvetica,sans-Serif" font-size="10.00">&#45; drawLine()</text>
</g>
<!-- uscp&#45;&gt;environment -->
<g id="edge3" class="edge"><title>uscp&#45;&gt;environment</title>
<path fill="none" stroke="#404040" d="M248.174,-783.297C254.024,-775.638 263.463,-764.694 274,-758 317.419,-730.415 339.783,-748.286 384,-722 389.449,-718.76 394.822,-715.037 400.024,-711.04"/>
<polygon fill="#404040" stroke="#404040" points="402.463,-713.57 408.045,-704.565 398.066,-708.123 402.463,-713.57"/>
</g>
<!-- simulation -->
<g id="node7" class="node"><title>simulation</title>
<polygon fill="white" stroke="black" points="228,-587 228,-721 342,-721 342,-587 228,-587"/>
<text text-anchor="middle" x="285" y="-709" font-family="Helvetica,sans-Serif" font-size="10.00">Simulation</text>
<polyline fill="none" stroke="black" points="228,-702 342,-702 "/>
<text text-anchor="middle" x="285" y="-690" font-family="Helvetica,sans-Serif" font-size="10.00"> </text>
<polyline fill="none" stroke="black" points="228,-683 342,-683 "/>
<text text-anchor="start" x="236" y="-671" font-family="Helvetica,sans-Serif" font-size="10.00">+ Simulation()</text>
<text text-anchor="start" x="236" y="-660" font-family="Helvetica,sans-Serif" font-size="10.00">+ generateOpId()</text>
<text text-anchor="start" x="236" y="-649" font-family="Helvetica,sans-Serif" font-size="10.00">+ simulate()</text>
<text text-anchor="start" x="236" y="-638" font-family="Helvetica,sans-Serif" font-size="10.00">&#45; moveCells()</text>
<text text-anchor="start" x="236" y="-627" font-family="Helvetica,sans-Serif" font-size="10.00">&#45; updateEB()</text>
<text text-anchor="start" x="236" y="-616" font-family="Helvetica,sans-Serif" font-size="10.00">&#45; evolveGeneticCode()</text>
<text text-anchor="start" x="236" y="-605" font-family="Helvetica,sans-Serif" font-size="10.00">+ increaseAge()</text>
<text text-anchor="start" x="236" y="-594" font-family="Helvetica,sans-Serif" font-size="10.00">+ splitCell()</text>
</g>
<!-- uscp&#45;&gt;simulation -->
<g id="edge4" class="edge"><title>uscp&#45;&gt;simulation</title>
<path fill="none" stroke="#404040" d="M244.69,-783.43C248.15,-772.407 254.512,-752.137 261.175,-730.908"/>
<polygon fill="#404040" stroke="#404040" points="264.593,-731.705 264.248,-721.116 257.914,-729.609 264.593,-731.705"/>
</g>
<!-- simulation_param -->
<g id="node8" class="node"><title>simulation_param</title>
<polygon fill="white" stroke="black" points="119,-239 119,-527 257,-527 257,-239 119,-239"/>
<text text-anchor="middle" x="188" y="-515" font-family="Helvetica,sans-Serif" font-size="10.00">SimulationParameters</text>
<polyline fill="none" stroke="black" points="119,-508 257,-508 "/>
<text text-anchor="start" x="127" y="-496" font-family="Helvetica,sans-Serif" font-size="10.00">&#45; latticeHeight</text>
<text text-anchor="start" x="127" y="-485" font-family="Helvetica,sans-Serif" font-size="10.00">&#45; latticeWidth</text>
<text text-anchor="start" x="127" y="-474" font-family="Helvetica,sans-Serif" font-size="10.00">&#45; latticeDepth</text>
<text text-anchor="start" x="127" y="-463" font-family="Helvetica,sans-Serif" font-size="10.00">&#45; fiberLength</text>
<text text-anchor="start" x="127" y="-452" font-family="Helvetica,sans-Serif" font-size="10.00">&#45; fiberCount</text>
<text text-anchor="start" x="127" y="-441" font-family="Helvetica,sans-Serif" font-size="10.00">&#45; cellCount</text>
<text text-anchor="start" x="127" y="-430" font-family="Helvetica,sans-Serif" font-size="10.00">&#45; cellDivisionAge</text>
<text text-anchor="start" x="127" y="-419" font-family="Helvetica,sans-Serif" font-size="10.00">&#45; alpha</text>
<text text-anchor="start" x="127" y="-408" font-family="Helvetica,sans-Serif" font-size="10.00">&#45; maxIteration</text>
<polyline fill="none" stroke="black" points="119,-401 257,-401 "/>
<text text-anchor="start" x="127" y="-389" font-family="Helvetica,sans-Serif" font-size="10.00">+ SimulationParameters()</text>
<text text-anchor="start" x="127" y="-378" font-family="Helvetica,sans-Serif" font-size="10.00">+ ~SimulationParameters()</text>
<text text-anchor="start" x="127" y="-367" font-family="Helvetica,sans-Serif" font-size="10.00">+ loadParameters()</text>
<text text-anchor="start" x="127" y="-356" font-family="Helvetica,sans-Serif" font-size="10.00">+ loadParametersFromFile()</text>
<text text-anchor="start" x="127" y="-345" font-family="Helvetica,sans-Serif" font-size="10.00">+ getFiberCount()</text>
<text text-anchor="start" x="127" y="-334" font-family="Helvetica,sans-Serif" font-size="10.00">+ setFiberCount()</text>
<text text-anchor="start" x="127" y="-323" font-family="Helvetica,sans-Serif" font-size="10.00">+ getFiberLength()</text>
<text text-anchor="start" x="127" y="-312" font-family="Helvetica,sans-Serif" font-size="10.00">+ getLatticeDepth()</text>
<text text-anchor="start" x="127" y="-301" font-family="Helvetica,sans-Serif" font-size="10.00">+ getLatticeHeight()</text>
<text text-anchor="start" x="127" y="-290" font-family="Helvetica,sans-Serif" font-size="10.00">+ getLatticeWidth()</text>
<text text-anchor="start" x="127" y="-279" font-family="Helvetica,sans-Serif" font-size="10.00">+ getCellCount()</text>
<text text-anchor="start" x="127" y="-268" font-family="Helvetica,sans-Serif" font-size="10.00">+ getCellDivisonAge()</text>
<text text-anchor="start" x="127" y="-257" font-family="Helvetica,sans-Serif" font-size="10.00">+ getAlpha()</text>
<text text-anchor="start" x="127" y="-246" font-family="Helvetica,sans-Serif" font-size="10.00">+ getMaxIteration()</text>
</g>
<!-- uscp&#45;&gt;simulation_param -->
<g id="edge5" class="edge"><title>uscp&#45;&gt;simulation_param</title>
<path fill="none" stroke="#404040" d="M238.358,-783.116C233.147,-769.994 223.675,-744.546 219,-722 206.615,-662.274 199.178,-595.587 194.711,-537.333"/>
<polygon fill="#404040" stroke="#404040" points="198.198,-537.023 193.966,-527.311 191.217,-537.543 198.198,-537.023"/>
</g>
<!-- utilities -->
<g id="node9" class="node"><title>utilities</title>
<polygon fill="white" stroke="black" points="64.5,-598 64.5,-710 171.5,-710 171.5,-598 64.5,-598"/>
<text text-anchor="middle" x="118" y="-698" font-family="Helvetica,sans-Serif" font-size="10.00">Utilities</text>
<polyline fill="none" stroke="black" points="64.5,-691 171.5,-691 "/>
<text text-anchor="start" x="72.5" y="-679" font-family="Helvetica,sans-Serif" font-size="10.00">+ TYPE</text>
<text text-anchor="start" x="72.5" y="-668" font-family="Helvetica,sans-Serif" font-size="10.00">+ COUNT</text>
<text text-anchor="start" x="72.5" y="-657" font-family="Helvetica,sans-Serif" font-size="10.00">+ ID</text>
<polyline fill="none" stroke="black" points="64.5,-650 171.5,-650 "/>
<text text-anchor="start" x="72.5" y="-638" font-family="Helvetica,sans-Serif" font-size="10.00">+ Utilities()</text>
<text text-anchor="start" x="72.5" y="-627" font-family="Helvetica,sans-Serif" font-size="10.00">+ ~Utilities()</text>
<text text-anchor="start" x="72.5" y="-616" font-family="Helvetica,sans-Serif" font-size="10.00">+ generateECMFile()</text>
<text text-anchor="start" x="72.5" y="-605" font-family="Helvetica,sans-Serif" font-size="10.00">+ writeIteration()</text>
</g>
<!-- uscp&#45;&gt;utilities -->
<g id="edge6" class="edge"><title>uscp&#45;&gt;utilities</title>
<path fill="none" stroke="#404040" d="M234.243,-783.43C222.227,-770.154 198.074,-743.468 174.882,-717.845"/>
<polygon fill="#404040" stroke="#404040" points="177.36,-715.367 168.054,-710.302 172.17,-720.065 177.36,-715.367"/>
</g>
<!-- point -->
<g id="node6" class="node"><title>point</title>
<polygon fill="white" stroke="black" points="468,-1 468,-179 528,-179 528,-1 468,-1"/>
<text text-anchor="middle" x="498" y="-167" font-family="Helvetica,sans-Serif" font-size="10.00">Point</text>
<polyline fill="none" stroke="black" points="468,-160 528,-160 "/>
<text text-anchor="start" x="476" y="-148" font-family="Helvetica,sans-Serif" font-size="10.00">&#45; x</text>
<text text-anchor="start" x="476" y="-137" font-family="Helvetica,sans-Serif" font-size="10.00">&#45; y</text>
<text text-anchor="start" x="476" y="-126" font-family="Helvetica,sans-Serif" font-size="10.00">&#45; z</text>
<polyline fill="none" stroke="black" points="468,-119 528,-119 "/>
<text text-anchor="start" x="476" y="-107" font-family="Helvetica,sans-Serif" font-size="10.00">+ Point()</text>
<text text-anchor="start" x="476" y="-96" font-family="Helvetica,sans-Serif" font-size="10.00">+ Point()</text>
<text text-anchor="start" x="476" y="-85" font-family="Helvetica,sans-Serif" font-size="10.00">+ getX()</text>
<text text-anchor="start" x="476" y="-74" font-family="Helvetica,sans-Serif" font-size="10.00">+ setX()</text>
<text text-anchor="start" x="476" y="-63" font-family="Helvetica,sans-Serif" font-size="10.00">+ getY()</text>
<text text-anchor="start" x="476" y="-52" font-family="Helvetica,sans-Serif" font-size="10.00">+ setY()</text>
<text text-anchor="start" x="476" y="-41" font-family="Helvetica,sans-Serif" font-size="10.00">+ getZ()</text>
<text text-anchor="start" x="476" y="-30" font-family="Helvetica,sans-Serif" font-size="10.00">+ setZ()</text>
<text text-anchor="start" x="476" y="-19" font-family="Helvetica,sans-Serif" font-size="10.00">+ getVar()</text>
<text text-anchor="start" x="476" y="-8" font-family="Helvetica,sans-Serif" font-size="10.00">+ setVar()</text>
</g>
<!-- cell&#45;&gt;point -->
<g id="edge7" class="edge"><title>cell&#45;&gt;point</title>
<path fill="none" stroke="#404040" d="M438.608,-232.664C447.367,-211.772 456.081,-190.987 464.028,-172.031"/>
<polygon fill="#404040" stroke="#404040" points="467.349,-173.163 467.987,-162.588 460.893,-170.457 467.349,-173.163"/>
</g>
<!-- environment&#45;&gt;automaton_cell -->
<g id="edge8" class="edge"><title>environment&#45;&gt;automaton_cell</title>
<path fill="none" stroke="#404040" d="M397.921,-610.129C383.265,-600.872 367.079,-592.058 351,-586 249.654,-547.819 193.792,-618.612 110,-550 86.0356,-530.377 71.6415,-500.373 62.9962,-471.243"/>
<polygon fill="#404040" stroke="#404040" points="66.3171,-470.12 60.2792,-461.414 59.5702,-471.985 66.3171,-470.12"/>
</g>
<!-- environment&#45;&gt;cell -->
<g id="edge9" class="edge"><title>environment&#45;&gt;cell</title>
<path fill="none" stroke="#404040" d="M440.418,-603.348C436.541,-590.148 432.124,-575.104 427.46,-559.225"/>
<polygon fill="#404040" stroke="#404040" points="430.703,-557.847 424.527,-549.239 423.987,-559.82 430.703,-557.847"/>
</g>
<!-- line -->
<g id="node5" class="node"><title>line</title>
<polygon fill="white" stroke="black" points="561,-288.5 561,-477.5 679,-477.5 679,-288.5 561,-288.5"/>
<text text-anchor="middle" x="620" y="-465.5" font-family="Helvetica,sans-Serif" font-size="10.00">Line</text>
<polyline fill="none" stroke="black" points="561,-458.5 679,-458.5 "/>
<text text-anchor="start" x="569" y="-446.5" font-family="Helvetica,sans-Serif" font-size="10.00">&#45; id</text>
<text text-anchor="start" x="569" y="-435.5" font-family="Helvetica,sans-Serif" font-size="10.00">&#45; numberOfPoints</text>
<text text-anchor="start" x="569" y="-424.5" font-family="Helvetica,sans-Serif" font-size="10.00">&#45; point[]</text>
<polyline fill="none" stroke="black" points="561,-417.5 679,-417.5 "/>
<text text-anchor="start" x="569" y="-405.5" font-family="Helvetica,sans-Serif" font-size="10.00">+ Line()</text>
<text text-anchor="start" x="569" y="-394.5" font-family="Helvetica,sans-Serif" font-size="10.00">+ Line()</text>
<text text-anchor="start" x="569" y="-383.5" font-family="Helvetica,sans-Serif" font-size="10.00">+ Line()</text>
<text text-anchor="start" x="569" y="-372.5" font-family="Helvetica,sans-Serif" font-size="10.00">+ ~Line()</text>
<text text-anchor="start" x="569" y="-361.5" font-family="Helvetica,sans-Serif" font-size="10.00">+ getId()</text>
<text text-anchor="start" x="569" y="-350.5" font-family="Helvetica,sans-Serif" font-size="10.00">+ setId()</text>
<text text-anchor="start" x="569" y="-339.5" font-family="Helvetica,sans-Serif" font-size="10.00">+ getNumberOfPoints()</text>
<text text-anchor="start" x="569" y="-328.5" font-family="Helvetica,sans-Serif" font-size="10.00">+ getPoint()</text>
<text text-anchor="start" x="569" y="-317.5" font-family="Helvetica,sans-Serif" font-size="10.00">+ setPoint()</text>
<text text-anchor="start" x="569" y="-306.5" font-family="Helvetica,sans-Serif" font-size="10.00">+ getPointArray()</text>
<text text-anchor="start" x="569" y="-295.5" font-family="Helvetica,sans-Serif" font-size="10.00">+ setPointArray()</text>
</g>
<!-- environment&#45;&gt;line -->
<g id="edge10" class="edge"><title>environment&#45;&gt;line</title>
<path fill="none" stroke="#404040" d="M508.61,-603.476C523.97,-587.443 539.832,-568.897 552,-550 564.411,-530.726 575.307,-508.812 584.533,-487.37"/>
<polygon fill="#404040" stroke="#404040" points="587.868,-488.466 588.518,-477.892 581.415,-485.753 587.868,-488.466"/>
</g>
<!-- environment&#45;&gt;point -->
<g id="edge11" class="edge"><title>environment&#45;&gt;point</title>
<path fill="none" stroke="#404040" d="M512.17,-645.476C567.765,-634.786 649.32,-609.389 688,-550 769.013,-425.611 758.443,-346.666 688,-216 656.317,-157.231 583.594,-121.562 537.87,-104.118"/>
<polygon fill="#404040" stroke="#404040" points="538.861,-100.753 528.267,-100.57 536.435,-107.319 538.861,-100.753"/>
</g>
<!-- environment&#45;&gt;simulation_param -->
<g id="edge12" class="edge"><title>environment&#45;&gt;simulation_param</title>
<path fill="none" stroke="#404040" d="M397.862,-617.083C361.924,-593.915 319.514,-565.339 304,-550 289.712,-535.873 276.023,-519.78 263.377,-503.304"/>
<polygon fill="#404040" stroke="#404040" points="266.072,-501.066 257.254,-495.192 260.485,-505.283 266.072,-501.066"/>
</g>
<!-- var -->
<g id="node10" class="node"><title>var</title>
<polygon fill="white" stroke="black" points="457,-283 457,-483 543,-483 543,-283 457,-283"/>
<text text-anchor="middle" x="500" y="-471" font-family="Helvetica,sans-Serif" font-size="10.00">Var</text>
<polyline fill="none" stroke="black" points="457,-464 543,-464 "/>
<text text-anchor="start" x="465" y="-452" font-family="Helvetica,sans-Serif" font-size="10.00">&#45; varName</text>
<text text-anchor="start" x="465" y="-441" font-family="Helvetica,sans-Serif" font-size="10.00">&#45; index</text>
<text text-anchor="start" x="465" y="-430" font-family="Helvetica,sans-Serif" font-size="10.00">&#45; delta</text>
<text text-anchor="start" x="465" y="-419" font-family="Helvetica,sans-Serif" font-size="10.00">&#45; value</text>
<polyline fill="none" stroke="black" points="457,-412 543,-412 "/>
<text text-anchor="start" x="465" y="-400" font-family="Helvetica,sans-Serif" font-size="10.00">+ Var()</text>
<text text-anchor="start" x="465" y="-389" font-family="Helvetica,sans-Serif" font-size="10.00">+ Var()</text>
<text text-anchor="start" x="465" y="-378" font-family="Helvetica,sans-Serif" font-size="10.00">+ ~Var()</text>
<text text-anchor="start" x="465" y="-367" font-family="Helvetica,sans-Serif" font-size="10.00">+ getVarName()</text>
<text text-anchor="start" x="465" y="-356" font-family="Helvetica,sans-Serif" font-size="10.00">+ setVarName()</text>
<text text-anchor="start" x="465" y="-345" font-family="Helvetica,sans-Serif" font-size="10.00">+ getIndex()</text>
<text text-anchor="start" x="465" y="-334" font-family="Helvetica,sans-Serif" font-size="10.00">+ setIndex()</text>
<text text-anchor="start" x="465" y="-323" font-family="Helvetica,sans-Serif" font-size="10.00">+ getDelta()</text>
<text text-anchor="start" x="465" y="-312" font-family="Helvetica,sans-Serif" font-size="10.00">+ setDelta()</text>
<text text-anchor="start" x="465" y="-301" font-family="Helvetica,sans-Serif" font-size="10.00">+ getValue()</text>
<text text-anchor="start" x="465" y="-290" font-family="Helvetica,sans-Serif" font-size="10.00">+ setValue()</text>
</g>
<!-- environment&#45;&gt;var -->
<g id="edge13" class="edge"><title>environment&#45;&gt;var</title>
<path fill="none" stroke="#404040" d="M463.306,-603.348C468.47,-572.481 475.319,-531.536 481.701,-493.387"/>
<polygon fill="#404040" stroke="#404040" points="485.201,-493.676 483.399,-483.235 478.297,-492.521 485.201,-493.676"/>
</g>
<!-- line&#45;&gt;point -->
<g id="edge14" class="edge"><title>line&#45;&gt;point</title>
<path fill="none" stroke="#404040" d="M582.01,-288.372C572.312,-264.719 561.844,-239.395 552,-216 545.66,-200.933 538.805,-184.885 532.176,-169.486"/>
<polygon fill="#404040" stroke="#404040" points="535.258,-167.794 528.085,-159.997 528.83,-170.565 535.258,-167.794"/>
</g>
<!-- simulation&#45;&gt;automaton_cell -->
<g id="edge15" class="edge"><title>simulation&#45;&gt;automaton_cell</title>
<path fill="none" stroke="#404040" d="M227.825,-615.161C212.469,-605.373 195.75,-595.049 180,-586 149.666,-568.572 133.103,-576.271 110,-550 90.4497,-527.768 77.1102,-498.675 68.0781,-471.065"/>
<polygon fill="#404040" stroke="#404040" points="71.3754,-469.882 65.0599,-461.375 64.6921,-471.964 71.3754,-469.882"/>
</g>
<!-- simulation&#45;&gt;cell -->
<g id="edge16" class="edge"><title>simulation&#45;&gt;cell</title>
<path fill="none" stroke="#404040" d="M307.378,-586.851C310.409,-577.891 313.626,-568.381 316.949,-558.556"/>
<polygon fill="#404040" stroke="#404040" points="320.277,-559.643 320.166,-549.049 313.646,-557.4 320.277,-559.643"/>
</g>
<!-- simulation&#45;&gt;point -->
<g id="edge17" class="edge"><title>simulation&#45;&gt;point</title>
<path fill="none" stroke="#404040" d="M280.601,-586.587C274.748,-480.189 268.851,-277.256 304,-216 337.882,-156.952 412.251,-121.221 458.436,-103.867"/>
<polygon fill="#404040" stroke="#404040" points="459.641,-107.153 467.839,-100.441 457.245,-100.576 459.641,-107.153"/>
</g>
<!-- simulation&#45;&gt;simulation_param -->
<g id="edge18" class="edge"><title>simulation&#45;&gt;simulation_param</title>
<path fill="none" stroke="#404040" d="M261.147,-586.851C255.586,-571.428 249.435,-554.372 243.133,-536.894"/>
<polygon fill="#404040" stroke="#404040" points="246.303,-535.368 239.619,-527.149 239.718,-537.743 246.303,-535.368"/>
</g>
<!-- utilities&#45;&gt;automaton_cell -->
<g id="edge19" class="edge"><title>utilities&#45;&gt;automaton_cell</title>
<path fill="none" stroke="#404040" d="M104.075,-597.915C94.8482,-561.414 82.5483,-512.757 72.0105,-471.071"/>
<polygon fill="#404040" stroke="#404040" points="75.3567,-470.027 69.5126,-461.189 68.5702,-471.742 75.3567,-470.027"/>
</g>
<!-- utilities&#45;&gt;simulation_param -->
<g id="edge20" class="edge"><title>utilities&#45;&gt;simulation_param</title>
<path fill="none" stroke="#404040" d="M132.334,-597.915C137.056,-579.772 142.558,-558.625 148.232,-536.824"/>
<polygon fill="#404040" stroke="#404040" points="151.628,-537.67 150.759,-527.111 144.854,-535.907 151.628,-537.67"/>
</g>
<!-- stem_cell -->
<g id="node11" class="node"><title>stem_cell</title>
<polygon fill="white" stroke="black" points="283,-759 283,-827 355,-827 355,-759 283,-759"/>
<text text-anchor="middle" x="319" y="-815" font-family="Helvetica,sans-Serif" font-size="10.00">StemCell</text>
<polyline fill="none" stroke="black" points="283,-808 355,-808 "/>
<text text-anchor="middle" x="319" y="-796" font-family="Helvetica,sans-Serif" font-size="10.00"> </text>
<polyline fill="none" stroke="black" points="283,-789 355,-789 "/>
<text text-anchor="start" x="291" y="-777" font-family="Helvetica,sans-Serif" font-size="10.00">+ StemCell()</text>
<text text-anchor="start" x="291" y="-766" font-family="Helvetica,sans-Serif" font-size="10.00">+ divide()</text>
</g>
<!-- ta_cell -->
<g id="node12" class="node"><title>ta_cell</title>
<polygon fill="white" stroke="black" points="373.5,-759 373.5,-827 456.5,-827 456.5,-759 373.5,-759"/>
<text text-anchor="middle" x="415" y="-815" font-family="Helvetica,sans-Serif" font-size="10.00">TACell</text>
<polyline fill="none" stroke="black" points="373.5,-808 456.5,-808 "/>
<text text-anchor="middle" x="415" y="-796" font-family="Helvetica,sans-Serif" font-size="10.00"> </text>
<polyline fill="none" stroke="black" points="373.5,-789 456.5,-789 "/>
<text text-anchor="start" x="381.5" y="-777" font-family="Helvetica,sans-Serif" font-size="10.00">+ TACell()</text>
<text text-anchor="start" x="381.5" y="-766" font-family="Helvetica,sans-Serif" font-size="10.00">+ differentiate()</text>
</g>
</g>
</svg>
